<?xml version="1.0" standalone="no"?>
<!DOCTYPE svg PUBLIC "-//W3C//DTD SVG 1.1//EN" "../../../../www.w3.org/Graphics/SVG/1.1/DTD/svg11.dtd" >
<svg>
<metadata>
Created by FontForge 20110222 at Fri Sep 20 02:20:53 2013
 By Orthosie Webhosting
Visit www.ttfnet.cjb.net for more free fonts
</metadata>
<defs>
<font id="XposedRegular" horiz-adv-x="0" >
  <font-face 
    font-family="XposedRegular"
    font-weight="400"
    font-stretch="normal"
    units-per-em="1000"
    panose-1="0 0 0 0 0 0 0 0 0 0"
    ascent="800"
    descent="-200"
    x-height="649"
    cap-height="685"
    bbox="-290 -194 1382.71 800"
    underline-thickness="20"
    underline-position="-90"
    unicode-range="U+0020-F002"
  />
<missing-glyph horiz-adv-x="500" 
d="M63 0v800h375v-800h-375zM125 63h250v675h-250v-675z" />
    <glyph glyph-name=".notdef" horiz-adv-x="500" 
d="M63 0v800h375v-800h-375zM125 63h250v675h-250v-675z" />
    <glyph glyph-name=".null" 
 />
    <glyph glyph-name="nonmarkingreturn" horiz-adv-x="270" 
 />
    <glyph glyph-name="space" unicode=" " horiz-adv-x="270" 
 />
    <glyph glyph-name="exclam" unicode="!" horiz-adv-x="351" 
d="M126 703l57 -6l46 -34q17 -52 85 -80v-17l-34 -23v-12l17 -5l-6 -23l-51 -57l-6 -12l29 -17q11 -40 -74 -51l-12 -35l-17 -11q-34 -6 -69 57l-51 23q-6 23 34 46l-28 40l11 91l-17 17v35q17 11 17 45q46 -11 69 29zM160 423q29 -6 46 11q5 29 -12 40q-91 12 -97 -23
l6 -11q51 6 57 -17zM114 257h57l-40 -57l23 -17l80 6l23 -35q0 -57 -23 -63l-28 6v-23q28 -5 34 -40l-17 -23l-120 6q-12 -11 -29 6l-5 57l-23 17l-6 29q-17 57 40 85q-6 35 34 46z" />
    <glyph glyph-name="quotedbl" unicode="&#x22;" horiz-adv-x="400" 
d="M57 646l69 -6q-6 -11 40 -29l114 -11q11 17 46 11l11 58l23 5l17 -17v-28q-40 -29 -34 -40q57 -35 23 -115q34 -40 -6 -57q0 23 -91 23l-23 17l-12 57q-28 29 -63 35q-17 -35 -62 -29l5 -17q52 -12 40 -69h-5l-40 -5q-12 28 -52 17l17 5l-28 29q-12 -11 -29 0l-11 46
l11 51l17 34l17 6l-5 23z" />
    <glyph glyph-name="numbersign" unicode="#" horiz-adv-x="757" 
d="M349 674h80l5 -11l-5 -52l-40 -57l-23 -17q23 -11 5 -40l12 6l28 28v23q12 12 46 -5q40 17 63 62l34 103q17 17 35 12q17 -23 57 -23v-12h23v-17h-18q-5 -11 18 -45l-40 -46l45 -29l6 -28l-46 -35v-5q63 5 69 17q6 6 -17 23l5 11h46q-11 -120 -51 -126h-23l-17 29
q-29 -11 -40 0l-17 -17l-69 -12l6 -17q51 6 40 -34l-69 -51q-11 17 -46 11q-5 -57 12 -57l17 23h34l35 -17v-23l-40 -29q11 -23 0 -28l-58 -40q-22 -12 -22 -120l-52 11l-40 29v57l34 45l-22 23l-23 -5l-17 17l-18 -6l-51 -63q11 -28 0 -40l-46 -40q17 -28 -11 -34
q-34 0 -40 23l-29 5v18l17 17l-17 11q-11 74 0 80l-74 34l11 58l-17 11l6 23q23 6 46 -17h45l46 28l-6 40l52 46l-23 29l-40 -12l-34 29v17l34 40h23l23 28q51 -11 57 6q6 34 34 52l34 68l23 17h-5zM320 303q17 -12 46 23q51 -12 57 5l23 -5l-6 23l11 22q-11 18 0 69
l-51 -17l-29 28l-22 -40q11 -28 0 -40l-52 -45zM600 314q63 -17 74 -40l-34 -57q-46 29 -63 17l-11 12l11 51z" />
    <glyph glyph-name="dollar" unicode="$" horiz-adv-x="620" 
d="M217 663l34 -6l12 -17h11l12 17q-12 40 0 57q28 -5 28 -17q-17 -34 12 -46l40 12l34 -12q17 12 40 0l69 -40v-11l45 -63q-17 -51 -80 -51l-40 5l-5 -11q-69 6 -75 -11v-18q12 -28 92 -40l28 -22l6 -46l74 -46l23 -23q-11 -45 97 -51q75 11 86 -6l23 12l6 -6l57 6l45 -40
l23 11l-5 -17q-69 -6 -69 11l-69 -11l-17 11l-34 -11q-51 11 -131 -6q11 -46 0 -51l-58 -29h-62l-52 23l-6 11q12 29 0 98l-11 11h-40l-17 -57q-6 -17 17 -63l-51 -29v-22q-18 0 -18 -23l-17 11q12 29 0 40h-51q-17 -28 -40 -17l-29 17q-34 -11 -51 0l6 29q0 23 -69 28
q-17 17 -17 46l40 51q40 -11 63 6h17l68 -63l18 6v40l11 11v18l-23 34l-40 -12l-46 12q-40 40 -57 34l-17 34l17 29q-17 23 12 74l-17 17q-58 -17 -52 40l6 29l40 57l51 29q63 -6 103 17zM463 280q-6 -23 17 -34l17 11v17l-17 12zM166 451l34 12q11 -23 51 -23v29
q-28 28 -17 51l-40 -6q-11 -45 -34 -45z" />
    <glyph glyph-name="percent" unicode="%" horiz-adv-x="824" 
d="M86 674h57v-11h17l-11 23l5 17q23 6 69 -40l51 6l35 -23q-12 -12 28 -46l-6 -51q29 -29 18 -40l-29 -40q11 -75 -6 -80l-40 -29l-74 -11l-23 -12q-17 -11 -51 29l5 23l58 11l34 34l6 29q22 6 28 34l-34 17q-12 35 6 40q5 35 -40 57l-40 -5q-6 23 -23 5q11 -62 0 -108
l-57 6l-40 -18l-23 12q-6 28 17 74q17 6 11 40q29 -6 35 12q-6 45 17 45zM606 697q28 6 34 -11v-23l-17 -17l-6 -52l-91 -91q-75 -6 -80 17q11 57 28 63l23 17q-6 34 12 46l45 5zM446 451q74 6 74 -17l-11 -28l-69 -52q6 -17 40 -23l51 12l29 23l57 17l29 -23h91l52 -23
l5 -23l-5 -5l34 -63l-12 -40q23 -23 -5 -75l-23 -34l-17 -17q-40 -6 -40 -17v-40q-6 -17 -35 -12l-17 -22h-23l-11 17l-80 5q-34 18 -46 40l-11 40l-23 12v23l-34 34l5 46h40l12 23l-23 22v40l-29 23h-17l-23 -51h-17l-5 -46q-63 -51 -58 -63l-74 -11l-23 6l-5 11v29l51 62
q-6 75 63 80l28 63h12l28 46zM640 80l63 6l-23 34l11 29l-17 17l6 40q-17 5 -11 40l-23 17h-23l-63 -92l17 -62zM206 80l28 -29l35 -5l-29 -46l-57 17l17 23l-6 29z" />
    <glyph glyph-name="ampersand" unicode="&#x26;" horiz-adv-x="923" 
d="M360 703l57 -6l63 29l57 -6l63 -40l69 -11l40 -52v-23l22 -23l-5 -22q5 -18 63 -18l28 -45l-63 17l-23 -29q-11 -23 29 -34l86 6l23 -69l-6 -6l11 -28l-11 -40q-23 11 -29 -23l-5 -40q-23 -17 -23 -40l-29 -29q23 -17 69 -22v-35l-29 -28l-28 11l-29 -11l-46 23l-85 -18
q-63 12 -80 0q-6 -5 17 -22v-29q-17 -40 -132 -40l-45 11q-6 -11 -63 0l-23 18q-23 -12 -52 22l6 58l-6 5l-22 -11l-40 28l-6 29l6 40q-35 11 -23 57l-29 23q-80 -6 -80 -17l-6 6l-28 -6l-12 11q-11 57 52 63l74 -6q69 12 103 52l57 17q6 23 -17 57l6 29l-35 28v97l35 52h17
l11 17q46 0 46 23zM451 531l63 6q6 34 -11 34h-17l-40 -22zM411 149q35 -6 52 17q6 17 -17 63q-35 -12 -52 51l-17 -6l-28 -45v-35q51 -5 62 -45zM617 331h12l40 58v5q-12 6 -75 -17q-11 -28 23 -46z" />
    <glyph glyph-name="quotesingle" unicode="'" horiz-adv-x="201" 
d="M80 646q29 11 57 -23q-40 -34 -34 -46l11 -11l23 11l46 -40l-6 -28h-34q-29 -23 -17 -35q23 -5 28 12q29 -17 35 -40v-29l-40 -11l-86 17l11 40l-40 17l-17 40q29 131 63 126z" />
    <glyph glyph-name="parenleft" unicode="(" horiz-adv-x="305" 
d="M183 474q11 17 -6 40l-28 -5l-29 22l29 35v51l40 12q0 22 51 22q34 6 40 -11v-34l-57 -23q-6 -34 17 -52l-46 -40v-17h-11zM109 440l34 -17l34 28l6 -22l23 -12l17 -23l-34 -80q-12 -97 0 -103l-12 -62l17 -58h-28v-17l34 -11l-6 -17l46 -12l-11 -23l-46 6l-34 -28
l-35 17v28q35 6 29 40q-52 29 -57 69l5 6l-5 34l-40 34q-12 40 23 57l-12 120l12 23zM171 -57l46 -17l12 -17h11l17 17l23 -23v-29l-11 -5l-35 17l-28 -23l-40 17l-17 17q-12 34 22 46z" />
    <glyph glyph-name="parenright" unicode=")" horiz-adv-x="304" 
d="M143 617q51 -17 51 -40l-5 -23q22 -11 5 -28q-40 -6 -40 -17h-28l-6 11l11 46v45zM137 474q29 12 74 -23l40 6l40 -46q-5 -51 -40 -57l35 -28l11 -75l-46 -74l-40 6l-5 -6q11 -40 -6 -57q-23 -6 -23 11l6 6l-40 103l6 29l22 17l18 28l-40 17v23q28 12 17 46
q-35 23 -29 69v5zM109 17q5 34 40 46l5 -6h12l17 29q46 11 63 -6l-6 -40q-40 0 -40 -23l-40 6q-23 -23 -51 -6zM91 -46q52 -34 103 -28l-17 -63l-51 -57l-57 28l-23 -5l-35 45v46l29 6q34 34 51 28z" />
    <glyph glyph-name="asterisk" unicode="*" horiz-adv-x="395" 
d="M171 446l6 -40l-17 -17l-11 -35q-35 -17 -46 -40q-57 6 -63 40v57q23 6 29 35q11 -6 45 17l17 17v17l-17 12l-57 -12l-46 29q-11 11 29 85l29 -5l62 -40l18 -29l5 12l40 -18l52 23l17 29l57 6q-11 -35 0 -46l46 -34l-6 -23h-57l-34 28h-12l23 -34l-6 -57l35 -46
q-12 -34 -29 -40h-34l-17 23v29q17 5 17 34l-40 28zM160 691q63 6 74 -40l-34 -91h-34l5 29q35 28 -22 62q-6 40 11 40z" />
    <glyph glyph-name="plus" unicode="+" horiz-adv-x="37" 
 />
    <glyph glyph-name="comma" unicode="," horiz-adv-x="264" 
d="M74 171l40 -5l40 45q52 29 75 -17l-6 -34q17 0 17 -17q-11 -52 -51 -52l-46 29l-23 -11l6 -12l28 6l17 -29l35 -28l-6 -29h-46l-28 23l11 23l-6 6l-62 -6q-12 34 -29 28l-6 35q6 34 40 45zM126 -23q45 6 45 -34q-22 -63 -74 -80l-40 6l17 45l29 23v17z" />
    <glyph glyph-name="hyphen" unicode="-" horiz-adv-x="333" 
d="M234 354l57 -34l6 -34q6 -75 -17 -103q-80 -12 -91 23h-35l-17 -17l-57 11q-29 -17 -63 17l6 46l-6 6l17 22q-5 40 12 40l143 12z" />
    <glyph glyph-name="hyphen" unicode="&#x2010;" horiz-adv-x="333" 
d="M234 354l57 -34l6 -34q6 -75 -17 -103q-80 -12 -91 23h-35l-17 -17l-57 11q-29 -17 -63 17l6 46l-6 6l17 22q-5 40 12 40l143 12z" />
    <glyph glyph-name="period" unicode="." horiz-adv-x="285" 
d="M46 211l63 -17l40 40l51 -5l17 -29l29 -23q11 -40 -23 -103q-23 0 -29 -28q-63 5 -108 -17q-52 17 -52 40l12 45l-23 40l11 12z" />
    <glyph glyph-name="slash" unicode="../../../default.htm" horiz-adv-x="426" 
d="M331 720l18 -6q-35 -74 -29 -120l-11 -5q-35 0 -40 45h-29q0 29 46 35q0 68 45 51zM200 389h17l6 -46l28 -29q0 -28 -28 -34l-6 -97l-57 -57q-57 0 -63 51q23 40 -6 52l6 34q69 11 69 28v46zM206 457l68 -6l-17 -45l-11 -6l-29 23l-23 6zM103 109l74 -40l-17 -86l-17 -34
l-23 -18q-40 12 -51 -5q-23 17 -69 17v17q40 17 80 11l11 23l-5 23l-40 29v17l45 17z" />
    <glyph glyph-name="zero" unicode="0" horiz-adv-x="662" 
d="M360 686q91 0 160 -52l11 -17l23 -11l40 -63q-11 -46 23 -74q6 -23 -17 -86l17 -40l-57 -57l11 -17l29 5q11 -34 -29 -40q23 -63 -5 -80l-29 -23l-11 -45h-17q-23 -35 -75 -52l-17 -34l-34 -17l-23 6l-17 22q-52 -11 -57 6l-12 17l-63 17l-74 52l-46 68v18q-40 22 -40 74
q-5 17 -34 11l-11 23v40l28 6l23 34v69l12 17q45 17 62 -40q12 34 35 46l-6 28h-29l-11 -17h-17l-17 34l28 92l29 -29l11 6l-5 57l40 34h40q34 -28 74 -34l-6 -6l6 -11q-17 0 -40 -52l6 -11l-12 -17q-11 -69 0 -74l-11 -46l11 -46q57 -23 23 -108l29 -35q40 0 40 -11
q22 -6 34 11q-12 57 6 75l-18 17l29 34l17 80l-11 6q0 34 -29 97l-6 46l-28 45q-6 17 17 52zM309 749h22l18 -18v-22q-52 0 -52 22zM754 69l12 -6l-6 -6q23 -46 6 -51l-29 5l-6 40zM469 -6l17 -23l-17 -22l-35 11l6 6l-11 23q34 -12 45 5h-5zM423 -57h40l-23 -23h-34z" />
    <glyph glyph-name="one" unicode="1" horiz-adv-x="622" 
d="M278 589l28 -23l17 5q18 -28 58 -34l17 -57l57 -69q-29 -40 -34 -120l11 -45l17 -17l57 5l17 -11q69 11 75 -69l-12 -51l-28 -29l23 -17l-6 -23l-57 17q-17 -17 -69 -11l-23 23l-23 -6l-40 23l-85 -23l-6 6l-57 -17q-23 17 -46 17l-68 -23l-58 6l6 5q-6 35 -17 35
q11 34 -6 91l57 46l23 -6l46 23l40 -6l34 40l-11 69l-23 63l46 40q45 5 45 17v17l-28 34zM272 680l29 -11v-63l-52 -6l-17 6v23zM129 589l-6 -75q-22 -5 -22 17q11 63 28 58z" />
    <glyph glyph-name="two" unicode="2" horiz-adv-x="614" 
d="M103 686l46 -6l68 17l52 -17l17 17l97 6l46 23l102 -75v-22l52 -63v-40l-17 -23q5 -29 -40 -103l-40 -46l-92 -51l-57 -46l12 -23l34 12q11 -23 91 -6l80 -69l12 -68q11 -46 -29 -69l-57 6q0 -17 -46 -11l-17 -23l-57 23q-40 11 -86 -29l-17 17l-34 -23q6 17 -34 40
q-18 6 -58 -17l-40 12l-22 -12l-35 29l17 51l-5 34l-35 52v28q23 40 69 63l17 63l-40 29l6 23q28 -12 166 0l34 28l23 46l-6 11l17 23l-34 23h-23l-6 -29l-51 -17l-29 17l-91 6l-12 46l-11 11l6 40q17 6 40 80zM269 554l34 6l-6 23h-11v-12l-6 6l-29 -6zM80 -69l17 23l29 -5
l-23 -23z" />
    <glyph glyph-name="three" unicode="3" horiz-adv-x="646" 
d="M63 594q-6 40 11 57l46 40q11 35 46 46l57 -6v-11l28 -6q18 52 58 40l45 -28l12 11l23 -17q40 29 57 -17l28 6l23 -23l46 -23q34 -40 23 -63l40 -51l-6 -23l-69 -52v-34l-34 -34q57 -63 69 -109q-6 -34 40 -68q5 -40 -40 -58l-75 6l-22 -17l5 -46l-17 -17l23 -46l-11 -17
l5 -17l-23 -11l12 -12l-6 -23h17l-5 -5q0 -29 51 -23l-23 -17l-28 11l-12 -28l-17 11l17 34l-6 12l-28 -17q-40 11 -34 51q-23 -6 -23 11l-52 6q-5 -17 -40 -11q0 23 -97 28l-34 17l-52 46l-17 34q-63 52 -57 80q-6 35 12 46l34 34l57 29q40 6 51 -17l-11 -57q74 0 126 -35
h63l40 29q17 23 -35 51l-11 35l-74 17l-63 -6l-23 23v51l23 46v34l-46 29l-46 -6q-28 12 -17 52zM269 491q68 -11 74 29l-6 63l-68 11q-23 6 -29 -11q-6 -29 11 -46l-5 -28zM486 74q0 29 23 29l57 -6v-17l-23 -23q-40 -6 -57 17z" />
    <glyph glyph-name="four" unicode="4" horiz-adv-x="606" 
d="M314 766l29 -6l23 -29q23 -11 34 23q69 12 86 -28v-35l28 -51q-23 -23 -28 -91q23 -35 0 -75l11 -51q17 0 17 -40q52 0 86 -52q17 -51 -34 -80l11 -40h-23q-11 46 -45 29l-40 -63q-6 -6 17 -40q17 -28 -40 -74l-23 6l-52 -23l-45 11l-35 46q12 23 -45 91l-86 -5l-11 11
q-115 -34 -143 29q28 40 11 120l40 97l52 40q-18 40 11 63l23 11l51 91q0 18 97 63q0 35 23 52z" />
    <glyph glyph-name="five" unicode="5" horiz-adv-x="598" 
d="M51 411q-5 35 18 40l17 -5l5 5l-34 40l-6 69l12 17q34 -6 28 23l-22 -11l-12 45l40 86l-23 6l-5 17l5 11q29 6 29 -34l23 6l23 -23q45 17 68 11q12 23 40 23l-17 -34l11 -29l92 12l34 23l17 -23q40 5 63 -12q0 75 23 80l17 -17l12 -80l-18 -57l-17 -17q-40 6 -63 -12
q-45 12 -68 -5l-29 17h-28l-17 -17l-23 11l-40 -6q0 29 -29 18v-18l29 -5l11 -80l52 11l17 -6l-6 -5l11 -23l52 6q6 34 28 28l52 -23h34l46 -28l-6 -17l40 -23v-35l40 -51l6 -34l-17 -40l-29 5l-17 -28l17 -34q17 -35 -63 -69l-51 11l-29 -57l-28 -17l-75 12q-22 -6 -28 -35
h-23l-46 40l-40 -11l-85 40l-23 23l5 40q-40 34 -34 45l52 52q11 -12 108 6l40 -40l40 -6l6 6q46 -29 68 -18l6 35l12 5l-6 23l17 40q-34 35 -23 57q-46 -22 -114 -17q-63 -23 -149 0z" />
    <glyph glyph-name="six" unicode="6" horiz-adv-x="662" 
d="M229 326q-6 -23 17 -69h17l23 -40l34 -11l29 17l-23 46l40 5l11 12q12 63 0 68q-34 -11 -91 0zM349 651l34 -17q6 17 34 12l12 28l-12 29q-57 -12 -46 40q23 17 46 -17q29 11 40 0l6 -35q6 -17 40 -17l34 -40q0 -34 23 -51l-6 -6l6 -11q51 11 63 -6l-52 -40l-120 17
q-28 -23 -80 6l23 34l6 -11l29 11l-6 29h-17l-6 -23l-23 11l6 6l-6 23l-40 6zM291 680l18 -17l-12 -34l-28 5q-12 46 22 46zM103 589l74 -18q29 29 40 18l23 -23l-23 -12q23 -40 -6 -63q-22 12 -51 -5v-17l23 11q46 -34 63 -23l68 17l23 17l46 -5q17 23 57 5l-6 -5l6 -23
l57 11q40 -11 63 -45l11 -52l-5 -23l28 -40l6 -40q-46 -5 -46 -17l6 -46l-57 12v-34l46 -23l-6 -23q-29 6 -40 -17h-34l-12 -23l-23 -6l-28 -40h-35q-22 -23 -68 -23q-46 35 -69 29l-23 23l-51 11l-17 -6q-69 58 -92 143l23 35q6 5 -40 62q-23 126 29 138q-17 57 40 120z
" />
    <glyph glyph-name="seven" unicode="7" horiz-adv-x="518" 
d="M114 69v17l23 23l-11 40l34 108l6 63l34 40v17q40 57 34 74q52 40 35 63l34 -5q0 40 28 62l-22 29q-18 -46 -98 -29l-57 18q-11 -12 -51 0q-17 -35 -57 5l5 6l-28 6v57l23 23l40 -12l28 29h17l23 -23q6 34 35 29l17 -12l45 6l40 34l18 -17h22q52 -34 63 -23l6 -63l11 -11
l29 11l17 -17l23 6q6 -52 -11 -80l5 -6l-68 -40l-12 -23l29 -23v-57l-29 -34v-51l-40 -92l23 -51q-11 -46 0 -63q-40 -40 -40 -63l-17 -11l-6 5l-148 -5q-57 28 -52 40zM286 640l28 11q-5 29 -40 40l-11 -5z" />
    <glyph glyph-name="eight" unicode="8" horiz-adv-x="646" 
d="M229 309q-6 -63 17 -80l80 -12l17 -11q6 -12 40 28l-17 86l-12 6h12v34h-23l-17 -23q-12 17 -63 12zM143 709h23q11 -23 97 -29l23 -17q-6 28 17 34l34 -6l6 29l23 6l17 28l63 6q114 -80 120 -120q5 -23 -17 -69q28 -34 -18 -51l-108 6l-17 -23h-12l23 -34v-46
q-40 -12 -17 -52l23 6l-6 12l6 40l11 5h46l46 -23l5 -34l92 -86l11 -28q0 -29 -23 -34l6 -35l-40 -45l-51 -29l-29 -40l-40 6l-46 -23h-57q-97 -46 -131 6l-74 -6l-92 91q-23 35 -23 97l-17 29l12 46q34 -17 74 63q6 11 -17 45l-40 35l-6 108l17 29q-17 40 86 103zM309 503
h22l-5 23l17 17l-6 57l-34 29q-23 5 -29 -12q6 -28 -17 -34l23 -74z" />
    <glyph glyph-name="nine" unicode="9" horiz-adv-x="638" 
d="M11 451l18 46l62 -23l35 17q205 -11 205 -28l46 40q-17 68 17 74l-74 40h-74l-46 -40l23 -28q11 -35 -29 -46l-63 6q0 17 -22 17l-46 -23l-52 17l40 63q-11 46 0 68l58 -5l34 40q57 -35 74 -6l6 -6l23 12l28 -12l6 12l-11 28q17 12 57 -23l34 6l-6 17l17 17h40l63 -57h17
q23 -5 29 -85l29 -23l22 -46q-11 -40 0 -97q29 -46 18 -74l-23 -29l-6 -29l11 -22q-22 -23 -22 -52l-75 -91l-34 -12l-29 -40h-40l-28 -23l-52 -5l-68 17l-17 17q-6 11 -63 -6l-109 97q-11 35 23 86l40 12h86l51 -29q23 -46 69 -23l40 69q6 23 -12 28l-80 -17l-40 17l-34 -5
q-23 28 -51 17l-17 23l-23 5l-40 40q-6 40 -35 57zM754 349h29l-6 -23h-28z" />
    <glyph glyph-name="colon" unicode=":" horiz-adv-x="294" 
d="M34 497l12 29l28 -29q12 12 46 0l23 -28h6l-6 40q23 -6 28 17q35 5 40 -12v-40q18 -5 12 -40l28 -34l-11 -23l-91 -34q-29 40 -80 17l-40 40v23l74 40l-23 17l-29 -6zM86 240l68 -6l63 -23q6 -34 -11 -45q34 -29 5 -63l-22 11l-18 -5l-28 11q-6 -17 11 -23l23 6l23 -29
l34 -11l-17 -23l-68 6q-58 -35 -98 5q-5 29 12 35h51l12 28l-12 12h-45l-35 -12l-5 29l17 63q28 5 40 34z" />
    <glyph glyph-name="semicolon" unicode=";" horiz-adv-x="308" 
d="M63 537l80 -23l6 23h17l-12 -34l23 -6v-28l52 -46q5 -23 -35 -63l-40 -11l-57 17v23q-28 -12 -40 0q12 17 -23 57q-17 23 35 68zM120 234l17 -11q40 -12 86 0l23 -34l-17 -75l11 -40q-51 -80 -63 -74q-34 -6 -40 11l6 29l28 29v17q-22 11 -22 34q-18 6 -23 -11l17 -18
q6 -28 -17 -57l-46 29v28l23 23l-6 12q-63 -12 -63 63q40 57 86 45zM120 -29q29 -5 29 -17q-6 -51 -35 -74h-51l-12 23q-5 28 12 34z" />
    <glyph glyph-name="less" unicode="&#x3c;" 
 />
    <glyph glyph-name="equal" unicode="=" horiz-adv-x="21" 
 />
    <glyph glyph-name="greater" unicode="&#x3e;" 
 />
    <glyph glyph-name="question" unicode="?" horiz-adv-x="508" 
d="M34 600v34l52 46l51 -11q17 11 57 0q-5 51 23 57l17 -6q0 -40 23 -63h17l6 34l17 -11l-6 -6l6 -23l86 18l68 -35q0 -34 23 -45l-5 -6l22 -29q6 -45 -11 -63l-23 -17l-17 -51l-29 -23l6 -34l-74 -46l-46 -46q6 -11 -40 -45l6 -23h68q12 -35 -5 -46l-57 -11l-29 -23
q-57 23 -63 0l-11 28v23q34 12 28 34h-11v-11h-29l6 17l29 12l-23 22q-12 46 0 92q-23 11 -23 23q34 40 28 51l40 6l40 51h18l17 12l-6 17l-46 6l-5 22l34 18l34 40q-23 0 -23 28l-97 -23l-28 6q-12 -23 -23 -23q-40 6 -52 34l-17 -22q-23 -6 -23 11zM349 503l22 6l18 51
l11 6q0 23 -29 28l-40 -11l12 -29q-29 -5 -17 -34zM23 560q46 -11 114 0l17 -29q-34 -28 -91 -28l-17 -12q-23 -5 -46 18v17l29 34h-6zM177 103l23 -6l-6 -34l-23 6z" />
    <glyph glyph-name="at" unicode="@" 
 />
    <glyph glyph-name="A" unicode="A" horiz-adv-x="691" 
d="M238 726q42 -24 131 6l18 -24l48 -6l23 12q18 -6 12 -35l36 -18q-6 -36 12 -54q42 -47 59 -30l24 -35l-12 -30l6 -6l30 12q0 -18 48 -18l-6 -6l6 -36q-30 -6 -60 18l-18 -6q-24 -24 48 -95q12 -119 0 -149l12 -36l-6 -71l30 -24l-6 -24l-42 -11q-24 -42 -54 -42l-89 18
q0 18 -24 18l-47 71q-102 12 -137 -6l-36 -18l-54 -71q-35 0 -77 -30l-42 30l-35 -6q18 12 12 41q-30 18 -18 54l24 48l-6 29q-24 0 -30 30q18 24 12 66l18 23l-12 6l24 -11v17l-30 12l-6 18l12 6q18 6 35 -18q6 30 24 36q0 59 -30 101l18 24h24l12 18l36 18v12h-18l-6 29
q36 18 48 42l11 36l18 12q12 47 30 53z" />
    <glyph glyph-name="B" unicode="B" horiz-adv-x="648" 
d="M65 744h84l36 -30q29 12 41 -6l12 36q42 12 155 -6q18 -42 59 -12l30 -24v-17l42 -36q30 12 65 -24l-24 -54l6 -11l60 -18l18 -36h24q17 30 65 36l6 -6l6 18q48 -18 42 -42l-6 -18q-30 0 -42 -24l12 -24l30 -17l-18 -24h-24l-36 30l-29 -12v-24l-30 -18l-24 -60l24 -47
l-12 -119q-30 -42 -107 -66q-12 -53 -30 -59h-30l-18 -18q-17 6 -83 -18q-36 -6 -42 12l-41 -12l-18 12l-48 -6l-30 -18l-65 6q-6 24 -65 24l-24 30l6 71l-18 24q-6 65 12 101l-6 24l30 24l-30 89l6 119q-36 42 -24 66l18 71l-12 77q36 42 47 36zM363 476h12q24 42 36 36
q12 53 -24 65q-54 -17 -89 -83l6 -12zM363 173q18 -6 72 17q-12 36 0 48l-36 24l-24 48l-48 -18q-59 12 -77 -6l6 -90q77 6 107 -23z" />
    <glyph glyph-name="C" unicode="C" horiz-adv-x="670" 
d="M89 708l54 -12q53 0 71 24h54l30 18q17 -12 172 0l30 -18h42l29 -18q18 -53 -41 -77q-48 36 -72 6l6 -36l18 -12l-12 -23h-18l-41 29l-72 -6l-47 -41l-42 -167l-18 -18v-18l24 -12l18 -35l-12 -30q18 -54 65 -66l12 -29l48 12q30 -18 42 11l-6 42l17 24v42l12 12
q24 5 48 -18l137 -18l12 -60l-24 -29q24 -60 -6 -78l-42 -42q-29 6 -41 -11q-36 -6 -48 11l-12 -23h-41l-60 -42l-107 18q-24 0 -30 53q-18 -6 -83 18l-18 54l6 47l-12 42l-89 89h-30l12 30q-24 18 24 89l-12 96l12 12l-6 35l12 36l23 18q12 36 -6 48zM548 548q17 -24 53 6
l24 -30q6 -30 -12 -36q-48 0 -48 24l-35 6zM857 0l24 -6l12 18l137 6l24 -18l-6 -60l-42 6l6 -35q24 0 24 -18l-36 -24q6 -24 -12 -24l-18 6l18 30l-6 18l-36 -6q18 -42 -17 -60l-18 6v24q-30 36 -42 24q-12 0 -12 -24l-24 6l6 48l-119 -12q-35 24 -47 6l-30 18q-6 29 12 29
l77 -12v12l36 6q6 24 24 24q47 -6 71 12h-6z" />
    <glyph glyph-name="D" unicode="D" horiz-adv-x="671" 
d="M65 685q90 -12 102 5q71 -17 101 18l59 -18l36 18l60 -29h29l30 -24l42 6q18 -30 65 -36l6 -30l24 -24h12l24 -41l-12 -42l-36 6l-18 -30l12 -41l-18 -66l36 -18l24 -59q6 -48 -12 -72l-36 -23q-35 -78 -77 -84l-6 -30l-83 12v-23l-30 -6q24 17 0 41h-18l-24 -24l-42 -6
l6 -17q-59 -54 -95 -60h-101l-30 36q-30 0 -41 24l6 23l-18 48q12 66 0 107q29 54 18 66l-12 53q-36 36 -30 42q0 48 30 65q0 54 23 60l-41 65l6 84zM315 167l30 6v12l36 11l18 48l-30 36l36 41l12 42q12 95 0 119l-78 78l-89 -12l-12 -48v-30q30 0 42 -59l-12 -137
q18 0 18 -66q35 -18 29 -41z" />
    <glyph glyph-name="E" unicode="E" horiz-adv-x="845" 
d="M446 726l36 -12l78 18l17 -12q24 -6 36 18h36l53 -42q42 18 66 -35l42 12l47 -18q-12 -24 0 -48l-24 -18l-35 6l-24 -12l6 -29l-24 -12l-18 -36h-30l-6 -18l-23 -18v-30l-36 -65q24 -36 0 -54h-72q-6 24 -35 24q-90 -59 -107 -47l-24 -30q24 -24 -24 -66l6 -41l30 12
l107 -6q12 18 41 18l36 -24q18 -6 24 18q77 -12 77 -30v-60l-35 -53l-60 -6q-107 -6 -113 18l-71 -24l6 -18l-12 -6l-30 12q-107 12 -119 0l-24 30q-59 -12 -71 6q-12 47 77 53q12 24 -30 30q-30 -12 -41 0l11 59l-47 48l-36 -6l-36 24l-6 -24q-11 12 -29 0l24 -24l-18 -18
l-24 6l-18 24v18l18 24l36 -12l6 12q5 -12 83 30q0 41 -24 41v30q36 6 54 36l-18 107l35 42l6 29l-23 42l23 24h36q60 53 214 83z" />
    <glyph glyph-name="F" unicode="F" horiz-adv-x="518" 
d="M470 720l36 -12l-18 -47l-12 -6q-30 12 -59 0v18l-30 23l6 18zM42 714h23l30 -29v11l54 6l30 -17l59 23h48q0 36 18 30l29 -24l6 -35l18 -30q36 -12 30 -30l77 6l42 -6l12 -12v-18q-42 -6 -42 -18q-12 24 -95 0q-24 54 -71 18l-30 -29q-6 -90 -42 -84l24 -24l65 -12
l90 18l59 -29l-24 -108l-47 -29l-66 6q-6 -18 -83 -18l-42 -24l24 -71l-30 -42l24 -30l-30 -59l12 -30l-12 -12l-12 6l6 42l-41 29l-54 -6q-24 -23 -47 -23l-30 41l24 149l-18 18l18 113l-30 107l18 77l-30 48l36 54l-12 35z" />
    <glyph glyph-name="G" unicode="G" horiz-adv-x="737" 
d="M333 238l12 -30h42q6 12 -36 36zM95 571h36l24 -47l53 47q12 24 -29 30q-12 60 6 66l29 -6q6 -30 42 -42l6 -24v-30h-12l6 -29q42 -12 36 -24q-24 -48 -78 -48l-6 -41q18 -6 12 -18l-24 -12l-41 18l-18 -18l-30 6v-30l18 -24q12 12 48 0l23 42l36 -36q0 -41 24 -41l18 17
l47 -41l36 6q12 47 36 53l-6 30l42 30l35 -6l18 47l54 -23q53 12 65 0l18 12l12 -12q18 6 65 -18v-90l30 -47q-6 -42 -41 -60q-6 -18 11 -23l-11 -120l-54 -41l-36 6l-47 35l-36 6l-30 -35l-18 12l-24 -18l-5 6h-18l-18 -24q-107 -6 -119 12q-6 41 -18 41h-18q0 -17 -24 -17
l-30 23q-17 -11 -59 30l-18 54l-36 30l-12 41l-35 24l-30 36v18l30 11l12 36l41 24q-23 36 0 48l36 -6l12 35v24l-54 60q-6 18 18 35zM381 601q12 42 48 54l35 -12q0 24 42 6l48 30q101 0 77 -96q48 -6 48 -35q6 -42 -18 -60l-66 6l-47 -18q-36 30 -54 12l-12 24l-36 30
l6 23l36 36l-53 6l-12 12q-18 0 -24 -24z" />
    <glyph glyph-name="H" unicode="H" horiz-adv-x="715" 
d="M-290 202l36 -12l89 -5q12 29 71 17l72 -12l18 -17l-6 -18q-54 -12 -60 -30l-36 18l-17 -6l-18 24l-42 -36l-59 6l-36 30q6 24 -12 29v12zM79 577l18 -12l36 6q6 -23 23 -6l-6 18l-41 -6q-42 6 -42 18q6 18 -18 84q6 71 113 89h36q-12 -30 6 -42l30 12l24 -18
q35 24 47 -6v-24l-36 -47l24 -42l-24 -18l-47 24q-12 12 -36 -30q12 -29 30 -35l48 -18q-12 12 -54 -30l-48 -6l-12 -18l30 -30l36 24l125 -18l24 -11q12 23 59 23l30 18q6 36 -12 48l18 18q-12 83 6 95l-12 30q18 23 12 77l83 -12q18 12 84 0l29 -36l-12 -41q12 6 30 -113
l-18 -48l6 -6l-12 -24q12 -6 0 -59q18 0 12 -30l-35 -71l29 -12l30 -48l-36 -12l-65 6q-18 -77 -83 -36q-6 42 59 36q6 6 -18 42h-18q-6 -24 -53 -30l-6 36q47 6 30 41q-48 6 -30 48l-6 12q-42 -6 -42 18l-59 -6l-12 12l-6 -6l12 -42l30 6l5 -18l-5 -36l-42 6l-54 -17
l-12 -60l18 -95l24 -30l-36 -30l-12 -47h-71l-24 12l-24 -12l-12 6l6 6l-41 29v18l-42 18l18 89l-18 30l30 48q0 35 -24 35v36l24 24v30l-30 18v17l36 30l12 30l-6 18q-48 36 -30 53zM156 167l36 18l-6 35q-30 6 -42 -12q-5 -29 12 -41zM383 155l178 -36l36 6l59 42l18 -18
q6 -30 -18 -60l-65 24q-12 -24 -24 -24l-24 -41h-24l-17 -18l-24 24q12 23 -6 53l-95 -12l-18 18q0 36 24 42zM585 18l48 -6l29 -30l-6 -6q18 -24 -12 -30l-5 6h-18q0 -29 -36 -35l-66 23l6 24l30 18z" />
    <glyph glyph-name="I" unicode="I" horiz-adv-x="317" 
d="M60 440q23 6 47 -17q36 -12 36 29l-6 18q-60 -18 -72 84q-17 -12 -59 29q12 48 95 42q12 42 72 60q23 11 65 -24l24 -30l-12 -24l-65 -6l-12 -18q47 12 71 -83q-36 -18 -30 -54l48 -29q6 -42 -42 -54q42 -12 66 -155l-30 -41v-24q48 -36 30 -54l-30 -29q6 -30 -18 -42
l-95 6q-60 -30 -101 12l6 53l-12 18l6 6l-6 36l18 65l-24 78l18 35q12 48 -6 78z" />
    <glyph glyph-name="J" unicode="J" horiz-adv-x="417" 
d="M220 762l24 -12l-6 -42l48 -6l35 12l24 -24l24 -5l-12 -24l12 -30l-18 -77h-30l-17 29q-18 0 -24 -23h-18v-12q30 -12 18 -48q-60 12 -66 0l-47 71l23 30l12 42l-6 30q6 41 18 41q-24 36 6 48zM119 208q30 6 36 -12l83 60l-6 24q-59 12 -71 35q18 72 83 90q-65 30 -18 83
l24 -18q42 18 101 12l-6 24l-24 12l12 24l48 -6v-30l-12 -12l-12 -48l24 -17l12 -78l-24 -36l-12 -89q0 -18 -24 -18l6 -6q30 18 36 -12v-41l-30 -30q12 -36 -24 -54l-65 12l-42 -17q18 11 -18 47l-17 -6q11 -12 0 -30l-36 -6l-54 6l-24 18h-47l-12 18q-6 60 12 89h83z" />
    <glyph glyph-name="K" unicode="K" horiz-adv-x="663" 
d="M-232 774q29 6 35 -18l-6 -30q-35 -6 -47 12q-6 30 18 36zM250 381l6 -30q-48 -12 -30 -59q36 12 48 0l6 -24l-6 -36l23 -71l-23 -48l-24 -24q12 -35 -6 -53l-36 12l-12 -18l-18 12q-18 -12 -41 6v41l12 18l-54 -6q-18 6 -18 42l6 42l-30 23l6 24l24 18q12 6 -24 42
l-6 59l30 42l-30 30l6 35l48 36q-36 18 -48 36q30 41 84 35h29l24 -17l18 12l24 -6l12 -36l-6 -42q0 -12 95 -12l18 -18v-11q18 -12 24 23v18q-48 12 -30 72q54 35 65 23l24 18h30l24 -29l24 -12v-18l-30 -30q-30 6 -36 -18q12 12 48 -53l6 -36l29 -18l24 -42
q-18 -41 36 -83l6 -48l-18 -29l42 -66h24v-18l-36 -35h-18v17l-18 18l-47 18l-84 -18l-59 54l-12 53l-18 18q-12 60 -48 54l-24 47l6 6q-17 30 18 48l-12 24zM512 744l6 -6l89 6l-12 -36q24 -12 6 -29l-30 -12q24 -72 -53 -72l-78 12l-18 -6v18l12 6l24 36l-24 41l12 24h36z
M160 661l36 -18q36 6 54 -12l-6 -18l-42 6l-12 -18l-47 24q-6 30 17 36zM101 732q18 12 54 -24v-18q-42 6 -54 36v6z" />
    <glyph glyph-name="L" unicode="L" horiz-adv-x="690" 
d="M197 780l36 -18l77 6l54 -30q-12 -12 0 -42q-24 -23 -54 -101l48 -59q-18 -48 -42 -48h-30q-35 42 -125 36q-12 -12 -53 30h-96l-41 -24q-78 -6 -84 -18l-29 18l-6 24l-30 41l6 60h36l47 -36l30 12l36 -12l35 18q54 -12 84 6l-6 42q18 35 107 95zM155 315q36 6 42 -11
q0 29 77 41l42 30q-12 -42 24 -65v-42l-18 -18l6 -54q89 24 107 -6l30 30l41 -18l72 24l18 -12l30 12l23 -41q-12 -48 -53 -48v-18q-24 -12 -24 -30l-54 -35l-35 23l-54 -6l-24 -29l-41 6l-66 -24l-18 6q12 30 -6 41l-35 -41l-48 -12l-54 12l-29 41q12 60 -6 66l12 12
q-12 24 29 95l-6 42z" />
    <glyph glyph-name="M" unicode="M" horiz-adv-x="895" 
d="M164 607l18 -24l24 6l-12 48l-18 -6zM105 744l36 -6q-12 -36 0 -48h53q-12 54 6 60l167 -6l-6 -42l30 -17q-12 -42 6 -54l-6 -12l-60 -30l-6 -47q-6 -18 -36 -12l-17 -30l11 -30l-11 -83q11 -72 -6 -77l12 -12q0 -119 29 -119h36l18 23h24l12 24l29 -12l18 12v12l-36 -6
q-5 30 42 60l42 -6l6 6l-6 18l-66 -12l-29 17l-36 -35l-54 41q0 42 24 54l24 -12q-12 36 0 48h30l29 18h18q6 -42 18 -42l78 6l35 -66l36 -35q0 -30 -30 -36l-6 -18l-30 -30v-23l18 -18l-6 -102l-23 -29l-72 6q-12 -30 -47 -12l-12 24l6 53l-60 42h-30l-18 -24
q-6 -30 12 -36q-12 6 -29 -18q11 -29 -6 -41l-42 6l-24 -18q-47 24 -101 24l-6 12q12 29 0 59l-30 24v18l30 18v95l-12 24q12 18 -6 83q30 36 18 48v17l-30 30v18l42 54v23l-24 12l-12 48q30 60 12 71l30 24zM-8 595h24q6 -30 -12 -35l-30 11zM283 667l12 6l-6 41h-29
q-12 -41 23 -47zM653 768l47 -18l12 -18l60 12l53 -42l-18 -6l36 -23q6 -78 -18 -78l-71 12l-24 -24l-95 12l-12 -12q24 -41 6 -59q-30 0 -42 -24h-30l-6 12l6 59q30 -6 42 12q-18 30 -60 24q-17 66 42 78l18 41l-6 6q6 30 60 36zM778 589q59 12 95 -29q6 -18 -18 -36
q-36 -36 -54 -24l-18 -18q24 -47 6 -77l66 -36l-18 -83l6 -30l-54 -48l-6 -23l12 -12l48 -6q12 -30 0 -36l-36 -6l-18 -36q-41 -6 -59 12l-18 -47q-24 -12 -48 23q12 60 -23 78v24l29 47q48 6 48 42q-6 53 12 89q-18 0 -12 30l24 6l30 36q11 71 0 101l11 24l-23 11z" />
    <glyph glyph-name="N" unicode="N" horiz-adv-x="843" 
d="M244 762q48 0 66 -48q5 36 35 30q0 -42 18 -42h18l59 -29q-5 -42 18 -42h30l36 18l41 65l36 24l101 -6l54 -36v-29l24 -42q12 -18 -24 -54l6 -47l-24 -18l12 -12h71l30 12q89 12 131 0q42 24 89 0l-11 -36l5 -35q36 -12 24 -30l-35 -12q-30 24 -84 24l-6 -12h-47l-78 -30
l-24 18l-41 -12l-24 -30h-18q-24 -59 -119 -53q-12 41 -48 59q-17 -18 -83 36l-77 -6q-30 24 -66 24q-89 -36 -107 -24l-12 -18h-12v-6l84 6l18 -24q-12 -89 -30 -101h-18l-18 36l-48 18q-23 17 -23 59l-18 6l-42 42l-48 12l-17 -6l-12 35q0 -17 -24 -11l-12 17v6
q95 24 113 6l24 18l-6 24l-30 18v24l18 17l-71 18q-12 12 0 24h17l72 72q12 6 0 41q6 30 107 42zM214 173h36l18 -24h6l-6 30l6 6h18l29 -30l-6 -36l-29 -24q-42 12 -54 -6v-35h-18q-6 35 -35 47q-6 72 35 72zM601 208q30 -29 60 -35l12 -18l23 6l42 -24l-30 -24l6 -24
l-83 24q-42 -36 -66 -24l-29 36q-6 54 59 60zM494 351l18 -12q12 -65 -24 -83q-36 12 -48 48q24 47 54 47z" />
    <glyph glyph-name="O" unicode="O" horiz-adv-x="814" 
d="M506 595l113 -6l12 12l42 -6l29 6l48 30q30 -30 60 -18q5 12 41 0q0 36 36 54l53 -24h30l72 -24v-12q-42 12 -66 0q-6 -30 18 -42l196 -65h24l-12 24l-77 47q42 6 54 -11l101 -84l-6 -137h24l12 36q17 83 -36 149q-66 59 -226 155q-6 17 17 35l18 6q42 6 54 -12l137 -137
l101 -148l-6 -66q24 -6 6 -36l-71 -35h-24l-36 24l-54 -36h-35l-48 -18l-107 12q-89 -12 -107 0l-161 -36q-42 -6 -53 12l-12 -6v-30q41 -6 41 -29l-35 -30l-30 -36q-30 0 -42 -24h-30l-95 -47q-30 18 -83 -18l-48 6l-18 24q-53 11 -65 29q-30 -12 -42 0l-6 24l-53 48
l-30 65l-36 24l-89 -6v18q12 -12 48 24v12l53 59q0 18 -30 48l-6 77q-41 0 -41 12l12 30q18 6 35 -18q12 0 12 48h42l18 23h36q11 24 53 -6q0 -35 -30 -71l-6 -36q12 -12 48 24l30 66l47 23q-6 48 18 54l-6 18q-12 -12 -29 6q-6 18 17 36q60 -6 66 -18l47 29q42 -6 54 -41
l-6 -30l-42 12q-35 -36 -47 -30l-72 -53l-17 -60l-12 -6q12 -53 53 -71l-12 -54h42l54 30l-12 30l12 6l5 -6q72 47 72 172h-6zM417 208q65 0 89 24l-6 54q60 6 54 47l-42 -6q-12 -41 -83 -41l-48 -36v-24zM1018 446l59 30l-29 24l-60 -6v-24zM530 774l41 -6l30 -42l-6 -12
q-18 12 -53 -6l-18 36zM1018 387h47v24q-29 6 -47 -12v-12z" />
    <glyph glyph-name="P" unicode="P" horiz-adv-x="680" 
d="M87 520l48 -12q0 18 -24 24q-6 47 36 71l-66 12l-6 18l12 36h36l24 -24l23 48l6 -54q6 -24 24 -6q-12 36 6 48l42 6l35 -30q30 30 42 18q12 -18 30 -12l24 -24q6 -24 -12 -24l-48 6q-12 36 -53 6v-18q35 -36 23 -95l42 -30l149 18l12 18l-60 48l-6 59l-53 24q12 30 30 30
l41 -6l12 12h125q30 23 42 0l-36 -84l6 -18l48 12l17 -18l-5 -53q-48 -6 -48 -18l24 -36q-6 -53 -42 -77q-30 12 -89 -30q-24 -6 -48 18l-30 -6l-12 -54l-5 6l-60 -6l-24 18l-59 -6q-24 42 -60 12l78 -125l-6 -35q11 -72 47 -84v-47l-41 -12l-36 6q-24 -18 -54 -12l-35 18
l-36 -12l-84 41l36 36l12 30l-12 36q36 17 54 89q18 47 -18 59q-18 6 -18 -35l-6 6q-24 6 -36 -12l-12 6l12 47q-35 72 -23 78q23 53 53 65zM-20 597q36 12 48 -53l-6 -72l-24 12q0 30 -30 66v41l18 6h-6zM539 508h12q0 71 -29 101l-30 -12l18 -35l-6 -42z" />
    <glyph glyph-name="Q" unicode="Q" horiz-adv-x="793" 
d="M524 714l53 -29l36 -6l-6 -48l-65 -18l6 -18l29 -12l36 6l36 60l41 -36q12 -101 30 -113l-18 -18l12 -24l-18 -65q0 -18 30 -48q12 -41 -30 -83l6 -6h-12l6 -60l-35 -47v-42l29 -18l12 6l24 -24l12 -41q24 -6 24 -18l-24 -36q30 0 18 -53q-60 12 -95 -6q-30 29 -66 12
q-30 23 -89 23l6 36l-42 12l-6 18l-89 -6l-42 24q-47 12 -71 0l-24 12q-30 -24 -42 -6q-11 29 24 35l-30 18l-29 -6l-30 30v30l-54 59l-6 60l-23 18q-24 -12 -30 0l12 47l18 12l-6 30l12 42l-6 83l53 77l54 42q-18 42 35 60l60 -6l36 -18v-18l47 24q0 47 12 47l6 -23h36
q12 -30 53 -18v-36q-35 -6 -47 12l-60 -42l-18 -41l-11 -6l17 -30v-24l-23 -6l-24 -24l18 -89l-6 -30l47 -30v-23l-23 -24l5 -12l30 -6l18 -42l12 42l36 -12v-12q12 12 29 0l60 54q-30 41 18 89v30l-24 65l12 48l-60 71v18l60 54l6 12l-18 23zM506 -48l6 36l-42 12l-6 18
l-89 -6l-42 24q-47 12 -71 0l-24 12q-30 -24 -42 -6q-11 29 24 35l-30 18l-29 -6l-30 30v30l-54 59l-6 60l-23 18q-24 -12 -30 0l12 47l18 12l-6 30l12 42l-6 83l53 77l54 42q-18 42 35 60l60 -6l36 -18v-18l47 24q0 47 12 47l6 -23h36q12 -30 53 -18v-36q-35 -6 -47 12
l-60 -42l-18 -41l-11 -6l17 -30v-24l-23 -6l-24 -24l18 -89l-6 -30l47 -30v-23l-23 -24l5 -12l30 -6l18 -42l12 42l36 -12v-12q12 12 29 0l60 54q-30 41 18 89v30l-24 65l12 48l-60 71v18l60 54l6 12l-18 23l30 18l53 -29l36 -6l-6 -48l-65 -18l6 -18l29 -12l36 6l36 60
l41 -36q12 -101 30 -113l-18 -18l12 -24l-18 -65q0 -18 30 -48q12 -41 -30 -83l6 -6h-12l6 -60l-35 -47v-42l29 -18l12 6l24 -24l12 -41q24 -6 24 -18l-24 -36q30 0 18 -53q-60 12 -95 -6q-30 29 -66 12q-30 23 -89 23zM524 714l53 -29l36 -6l-6 -48l-65 -18l6 -18l29 -12
l36 6l36 60l41 -36q12 -101 30 -113l-18 -18l12 -24l-18 -65q0 -18 30 -48q12 -41 -30 -83l6 -6h-12l6 -60l-35 -47v-42l29 -18l12 6l24 -24l12 -41q24 -6 24 -18l-24 -36q30 0 18 -53q-60 12 -95 -6q-30 29 -66 12q-30 23 -89 23l6 36l-42 12l-6 18l-89 -6l-42 24
q-47 12 -71 0l-24 12q-30 -24 -42 -6q-11 29 24 35l-30 18l-29 -6l-30 30v30l-54 59l-6 60l-23 18q-24 -12 -30 0l12 47l18 12l-6 30l12 42l-6 83l53 77l54 42q-18 42 35 60l60 -6l36 -18v-18l47 24q0 47 12 47l6 -23h36q12 -30 53 -18v-36q-35 -6 -47 12l-60 -42l-18 -41
l-11 -6l17 -30v-24l-23 -6l-24 -24l18 -89l-6 -30l47 -30v-23l-23 -24l5 -12l30 -6l18 -42l12 42l36 -12v-12q12 12 29 0l60 54q-30 41 18 89v30l-24 65l12 48l-60 71v18l60 54l6 12l-18 23zM798 30h47l48 -24v-24l-24 -6l-18 18l-47 6l-12 12z" />
    <glyph glyph-name="R" unicode="R" horiz-adv-x="871" 
d="M256 673q-6 41 42 35l53 -6l6 12q36 -6 48 12q0 48 30 48l77 -30q77 -12 131 0l-6 -30l18 -18l24 6l6 36l17 -6q-23 -30 -6 -42q30 24 42 0q6 -29 -42 -35l-11 -36l17 -24l30 -12l-6 -35q-47 -12 -47 -30q125 -18 178 -48l6 -18l-18 -17l-35 11l-36 -11l-42 5l-47 -23
l-24 18h-12l-36 -30v-42l-18 -12h-95q-6 -36 -71 -24q-6 -59 29 -59l12 18h36l36 29l23 -17l6 -18l48 -54l30 -12q36 12 77 -6l30 18l-18 54l36 12l59 -6q0 18 30 12q12 -18 30 -12l42 18l53 -18q12 18 42 18l47 -18q12 12 119 0q0 -54 -23 -60v-24h12l-12 -29l6 -6l-18 -18
l-42 6l-6 -12l-6 6l-53 -6q-6 -18 -18 -12v18l-30 -6l6 -18l-12 -12l12 -18l-6 -12l-42 6v30h12q24 12 -6 36l-53 -18l-30 12l-30 -6l-24 6q6 30 -18 41l-5 -11l-60 -12q-60 18 -95 -18l6 -30q-12 -42 -30 -42l-36 -6l-59 -29q-18 12 -78 0l-47 23l-6 12q18 18 12 36l-12 48
q-42 29 -36 71l-65 83h-30l-36 -23v-30l36 -36l-6 -47l-42 -54l-30 -12l-35 24l-18 -48q-78 -53 -107 -35l24 53v24l-36 42v53l47 48l6 24l84 65l35 66l-6 11l-65 24l12 48l-24 48l-24 17q-6 36 18 42h30l30 -12l23 -42q12 0 12 48l30 -30l-18 -77l36 -30h42l29 18
q78 -6 131 18q0 36 -53 101q-36 0 -48 24q-59 -6 -53 36h-18l-18 -18zM71 446l24 -11q12 -36 -24 -48l-29 12q-12 24 29 47zM54 774l29 -12q6 -48 -12 -48l-29 24q-6 30 12 36z" />
    <glyph glyph-name="S" unicode="S" horiz-adv-x="729" 
d="M30 30l6 -6q24 18 71 -18q-18 -36 -42 -42q-5 -12 18 -35q30 -6 42 11l12 -5l-6 -18l24 -18l-18 -30h-54l-23 24l-36 6v-12q18 0 12 -30h-18v30h-18v6q6 18 24 12l-12 35q24 -11 30 0l-42 12q-11 66 30 78zM149 6h36l29 -24l-6 -24l-53 6l-12 30zM280 83l24 -6l17 30
l30 -12q-12 -18 6 -53l-12 -6q-41 -6 -53 18l-12 -6l-12 12zM423 60l41 -6l-18 -36l-29 12zM83 274l60 -12l18 24q18 6 53 -18l6 12q30 -12 36 0q24 0 24 -54l41 -12l30 6l18 -35q12 11 30 -6l53 35q12 36 42 54l24 -12v-54q42 -12 89 0l18 -29l-18 -36q-36 6 -47 -18l-36 6
l-30 -18l-24 12h-47q-18 -18 -42 -12l-24 36l-47 12l-18 -24q-72 -12 -96 0q-11 -30 -29 -18l-18 24h-24l-24 30l-24 12q0 29 -29 65l6 18zM77 512l42 113h12q-18 77 42 83q-18 48 65 78h48l35 -6l6 -12l72 18l12 -12q12 18 53 12l101 -36q6 -24 36 -6v-18l-30 -30l54 -53
l71 -18l-6 -24l-71 -18l-54 -47l-47 12l-12 -18q-48 12 -42 47l6 6l-6 12q-29 -12 -65 6q-18 -18 -42 -12l-30 -35l12 -48q12 -6 48 18l30 -36l35 -6q30 30 84 12l65 -18q42 -53 66 -41l-18 -108q12 -29 47 -41l-11 -54h-36q-6 24 -36 30l-24 36l-47 -12l-12 59l-30 30
l-42 24q-23 -95 -71 -72q-12 66 -48 84l-41 -6l-30 -30q-24 42 -101 60q-6 23 18 47l77 6l12 18l-24 18l-54 -18q-77 18 -107 -12z" />
    <glyph glyph-name="T" unicode="T" horiz-adv-x="559" 
d="M48 780q83 -12 113 6q12 -24 77 0l12 -12l60 12q35 -30 142 -12q24 -24 54 -30l12 -59l-12 -54q30 -42 -36 -60q-89 18 -113 -35q12 -72 101 -101l-6 -36q-6 -18 -59 -12l-24 -42l6 -18l-18 -47v-18q48 -36 30 -54l-42 -119l-24 -12l-41 18l-101 -12q-36 12 -54 48
q30 125 42 125l-18 18l12 41l-12 12l-12 90q24 71 -30 89l6 18l42 41l-18 12l-95 6q-53 54 -12 84q0 18 -24 23v42q30 12 42 48z" />
    <glyph glyph-name="U" unicode="U" horiz-adv-x="615" 
d="M71 417l36 -30q18 24 36 24l36 59l6 -24l23 -23q30 6 42 -42l-18 -24l18 -143l95 -41h18q89 59 89 101l42 6l12 59l30 18l59 -89l-24 -78l-23 -29l-6 6l-24 -6q-6 -18 18 -66l-12 -18l-30 6l-18 -23h-24l-35 -24q-30 18 -78 -18l-35 24l-36 -12l-36 18l12 29l-6 12
l-65 -29l-24 17q-30 -12 -42 6l6 6l-12 30q-59 -18 -77 89l18 84l41 41l-29 12l-6 54zM464 417q36 -6 42 -36v-30l-24 -24q-36 -6 -42 42q0 48 24 48zM95 649l30 -6l-6 -24q-48 6 -54 -48h30q12 30 30 18l30 -24q53 12 59 -5v-24l-18 -18l6 -24q-29 0 -35 24h-18l-36 -48
l-24 6l-29 -18l-24 78l24 41l-18 12l12 30h11z" />
    <glyph glyph-name="V" unicode="V" horiz-adv-x="681" 
d="M524 744l59 -12l30 18v-6l24 6l12 -18v-107q-18 -12 -12 -77l-24 -30v-72l-83 -77v-54q18 0 18 -41l-48 -66q-12 -119 -54 -125q6 -53 -17 -89l-54 24q-18 -18 -125 -18q-54 12 -54 48l6 89q-23 24 -29 65l-30 18l-30 54l36 47l-89 125l-30 114l6 71q-41 12 -18 77h42
l17 24q42 -12 54 0l36 -30q23 24 53 0l12 -41q24 6 54 -90v-35l24 -66l-12 -95l6 -6l-42 -83l12 -12q47 0 83 30q-12 53 0 65l12 18l12 77l18 18v89l59 119q-6 48 66 54z" />
    <glyph glyph-name="W" unicode="W" horiz-adv-x="982" 
d="M500 750l42 -12l59 6q36 -6 54 -36q-6 -23 18 -29l12 29l59 -12l36 12q18 30 59 36l90 -12l11 -24v-41l-23 -30q-12 6 -30 -18q6 -18 -18 -42l12 -23v-42l30 -24l6 -30l-18 -18v-11q-42 -12 -60 -54q-24 12 -47 -6l-24 42l-30 18l12 83l18 18v18l-30 23q-48 24 -83 -77
l6 -83l-12 -12l-42 6l-12 18l-30 -18l-29 30l-12 -36q-48 18 -95 12l-36 -30h-36l-24 18h-23l-30 -18l-30 -60h-71v12h-18q6 -18 18 -18v-23l35 -36l36 18l36 -6q-12 30 0 42q24 5 47 -18l12 6l24 -36l-6 -6l6 -18l18 6q-24 -18 -30 -83l48 -18l-6 -24l-24 -18l-54 24
q24 65 6 89h-12l-59 -53q24 -78 -6 -90l-24 6l-12 36l-29 24v53q-12 30 -48 36l-30 78l36 59q-60 6 -78 72l12 130q-71 131 -53 155q0 24 47 24l167 -18q24 0 30 -95l30 -36l65 12l12 12l12 83q18 30 42 36l77 12h-6zM1095 595l30 -6l83 6l60 24q24 54 77 18l-6 -42
q-29 -12 -35 -30l-60 6l-48 -41h-47q12 30 0 35q-60 0 -54 24v6zM786 268l24 -6v-48l-24 -41l18 -48q-48 -36 -72 -24l-18 -24l60 -35l-18 -30q-54 -12 -77 24q17 41 -12 65q-102 -18 -107 18l5 42l54 -6l30 18q-12 53 0 59q30 -6 41 18q72 -6 96 18zM643 339l18 -12l-6 -6
l6 -11l-30 -24l-36 6q-12 35 48 47zM333 48l30 -12q6 -36 -18 -42q-30 6 -30 18q-5 30 18 36zM423 -137l6 24l89 -42l-6 -30l-54 42zM804 -12l53 -12v-30l-36 12l-29 -6l-6 6q6 30 18 30z" />
    <glyph glyph-name="X" unicode="X" horiz-adv-x="763" 
d="M342 780l36 -6l35 -30q12 -54 30 -65q-35 -78 78 -90q6 0 47 78l24 6q12 41 54 59q71 -42 89 -36l6 -11l-6 -36l-42 18q-18 -42 -47 -60v-30l17 6l12 24l18 -6q6 -101 -65 -131q-6 -59 -42 -47q-59 12 -65 -6l-30 18l-18 -24q-30 6 -42 -12q6 -48 36 -60q18 12 161 0
q18 -24 41 -6l42 -35l-12 -36q-24 0 -24 -24q24 -18 54 -18l18 -35l-6 -84q-30 6 -30 18l-24 -12q-35 24 -71 -6q-6 24 -66 24l-35 54l6 29l-54 48l-54 -18q-41 -48 -65 -48l18 -65l-30 -18h-24q-12 42 -35 42q23 -30 6 -42q-54 -12 -60 -30l-48 -65l-23 6l17 59
q6 30 -35 36q12 24 47 24l30 30l-30 35l-89 12l-6 24l-48 12l6 6q-6 42 -17 42l11 17l72 -11l71 11l24 24l48 -6l65 30l54 -24l18 24l-12 36l-36 41l-48 18q-59 78 -71 119l-65 60q-6 83 11 89q143 60 173 54zM-98 24l142 -12q0 18 72 12l-6 -12l-24 6q6 -30 -42 -36l-59 6
l-30 -6l-24 -24l-23 18q-18 0 -24 -24l6 -12l-12 -5l-30 35v30l30 -18l24 12q-12 24 0 30zM306 24q30 0 30 -30l-18 -36h-18l-23 -29q-18 -6 -36 17v24h12q35 60 53 54z" />
    <glyph glyph-name="Y" unicode="Y" horiz-adv-x="690" 
d="M571 756q96 -6 96 -42l-36 -29v-30q-60 -42 -48 -107q-12 -24 -53 -30l-60 -54l12 -29l-6 -18l-41 -30l-12 -36q-66 -41 -60 -65q89 -36 83 -54v-36l-29 -41l23 -60l-29 -18q-18 18 -36 12l18 24v12l-18 -6l-30 24q0 53 -30 59l-17 -6l-72 36v24q30 12 18 48
q-48 47 -30 77l36 -6l30 30l-6 47l-18 -6q6 -41 -30 -41q-47 41 -65 35q-30 18 -66 90l-6 47q-71 36 -77 125v24l53 36l42 -18q119 12 125 0l36 -59l36 -24l11 -54l24 -24q30 -6 42 12l36 78l71 65l89 18h-6zM327 -77q54 6 78 -18l24 12l59 -18l-24 -30l6 -18q-35 12 -71 0
v18l-36 -12q-12 18 -53 12l-30 24q12 30 47 30z" />
    <glyph glyph-name="Z" unicode="Z" horiz-adv-x="604" 
d="M155 530l35 -6l54 24v12l60 29q11 30 23 36q6 -65 125 -36l48 -29l6 -18q6 -42 -12 -54q-65 -53 -59 -83l-90 -24q-12 -30 0 -42l-24 -41v-18l-17 6q23 35 6 53q-66 -6 -66 -18l6 -41q54 12 60 0l-6 -48l-12 -30l-12 -6l-66 18l-107 -12q-47 0 -47 30v30l59 77l6 24
l54 54q-12 12 6 47l-18 18l-66 6l-12 18q18 -12 66 24zM238 113l6 -18l42 12v12zM190 42q24 0 24 71q-59 -12 -71 0l-48 -12l-30 18l6 24l36 -6q24 36 72 30l35 29l107 -23l72 6l18 -12l65 6q18 -24 60 -6l41 -30l-12 -72l24 -23q90 23 113 -54l-23 -30v-12h-42l-48 30
q6 24 -18 30l-47 -6l-89 30l-30 -6l-42 6q0 24 -48 24q6 11 -17 29q-6 -89 -108 -41zM226 708q42 0 54 -23l-24 -30l12 -36l-24 -18l-36 24zM351 714q18 -12 78 0l35 -24l-35 -29l-6 -18h-24l-24 30q-24 -6 -30 17zM95 714l54 -6l6 -12l-24 -29l-54 18l-6 -6zM24 679h18
l12 -30q41 6 41 -12l-24 -36q-41 -6 -53 60z" />
    <glyph glyph-name="bracketleft" unicode="[" 
 />
    <glyph glyph-name="backslash" unicode="\" 
 />
    <glyph glyph-name="bracketright" unicode="]" 
 />
    <glyph glyph-name="asciicircum" unicode="^" 
 />
    <glyph glyph-name="underscore" unicode="_" horiz-adv-x="16" 
 />
    <glyph glyph-name="grave" unicode="`" 
 />
    <glyph glyph-name="a" unicode="a" horiz-adv-x="691" 
d="M238 726q42 -24 131 6l18 -24l48 -6l23 12q18 -6 12 -35l36 -18q-6 -36 12 -54q42 -47 59 -30l24 -35l-12 -30l6 -6l30 12q0 -18 48 -18l-6 -6l6 -36q-30 -6 -60 18l-18 -6q-24 -24 48 -95q12 -119 0 -149l12 -36l-6 -71l30 -24l-6 -24l-42 -11q-24 -42 -54 -42l-89 18
q0 18 -24 18l-47 71q-102 12 -137 -6l-36 -18l-54 -71q-35 0 -77 -30l-42 30l-35 -6q18 12 12 41q-30 18 -18 54l24 48l-6 29q-24 0 -30 30q18 24 12 66l18 23l-12 6l24 -11v17l-30 12l-6 18l12 6q18 6 35 -18q6 30 24 36q0 59 -30 101l18 24h24l12 18l36 18v12h-18l-6 29
q36 18 48 42l11 36l18 12q12 47 30 53z" />
    <glyph glyph-name="b" unicode="b" horiz-adv-x="648" 
d="M65 744h84l36 -30q29 12 41 -6l12 36q42 12 155 -6q18 -42 59 -12l30 -24v-17l42 -36q30 12 65 -24l-24 -54l6 -11l60 -18l18 -36h24q17 30 65 36l6 -6l6 18q48 -18 42 -42l-6 -18q-30 0 -42 -24l12 -24l30 -17l-18 -24h-24l-36 30l-29 -12v-24l-30 -18l-24 -60l24 -47
l-12 -119q-30 -42 -107 -66q-12 -53 -30 -59h-30l-18 -18q-17 6 -83 -18q-36 -6 -42 12l-41 -12l-18 12l-48 -6l-30 -18l-65 6q-6 24 -65 24l-24 30l6 71l-18 24q-6 65 12 101l-6 24l30 24l-30 89l6 119q-36 42 -24 66l18 71l-12 77q36 42 47 36zM363 476h12q24 42 36 36
q12 53 -24 65q-54 -17 -89 -83l6 -12zM363 173q18 -6 72 17q-12 36 0 48l-36 24l-24 48l-48 -18q-59 12 -77 -6l6 -90q77 6 107 -23z" />
    <glyph glyph-name="c" unicode="c" horiz-adv-x="670" 
d="M89 708l54 -12q53 0 71 24h54l30 18q17 -12 172 0l30 -18h42l29 -18q18 -53 -41 -77q-48 36 -72 6l6 -36l18 -12l-12 -23h-18l-41 29l-72 -6l-47 -41l-42 -167l-18 -18v-18l24 -12l18 -35l-12 -30q18 -54 65 -66l12 -29l48 12q30 -18 42 11l-6 42l17 24v42l12 12
q24 5 48 -18l137 -18l12 -60l-24 -29q24 -60 -6 -78l-42 -42q-29 6 -41 -11q-36 -6 -48 11l-12 -23h-41l-60 -42l-107 18q-24 0 -30 53q-18 -6 -83 18l-18 54l6 47l-12 42l-89 89h-30l12 30q-24 18 24 89l-12 96l12 12l-6 35l12 36l23 18q12 36 -6 48zM548 548q17 -24 53 6
l24 -30q6 -30 -12 -36q-48 0 -48 24l-35 6zM857 0l24 -6l12 18l137 6l24 -18l-6 -60l-42 6l6 -35q24 0 24 -18l-36 -24q6 -24 -12 -24l-18 6l18 30l-6 18l-36 -6q18 -42 -17 -60l-18 6v24q-30 36 -42 24q-12 0 -12 -24l-24 6l6 48l-119 -12q-35 24 -47 6l-30 18q-6 29 12 29
l77 -12v12l36 6q6 24 24 24q47 -6 71 12h-6z" />
    <glyph glyph-name="d" unicode="d" horiz-adv-x="671" 
d="M65 685q90 -12 102 5q71 -17 101 18l59 -18l36 18l60 -29h29l30 -24l42 6q18 -30 65 -36l6 -30l24 -24h12l24 -41l-12 -42l-36 6l-18 -30l12 -41l-18 -66l36 -18l24 -59q6 -48 -12 -72l-36 -23q-35 -78 -77 -84l-6 -30l-83 12v-23l-30 -6q24 17 0 41h-18l-24 -24l-42 -6
l6 -17q-59 -54 -95 -60h-101l-30 36q-30 0 -41 24l6 23l-18 48q12 66 0 107q29 54 18 66l-12 53q-36 36 -30 42q0 48 30 65q0 54 23 60l-41 65l6 84zM315 167l30 6v12l36 11l18 48l-30 36l36 41l12 42q12 95 0 119l-78 78l-89 -12l-12 -48v-30q30 0 42 -59l-12 -137
q18 0 18 -66q35 -18 29 -41z" />
    <glyph glyph-name="e" unicode="e" horiz-adv-x="845" 
d="M446 726l36 -12l78 18l17 -12q24 -6 36 18h36l53 -42q42 18 66 -35l42 12l47 -18q-12 -24 0 -48l-24 -18l-35 6l-24 -12l6 -29l-24 -12l-18 -36h-30l-6 -18l-23 -18v-30l-36 -65q24 -36 0 -54h-72q-6 24 -35 24q-90 -59 -107 -47l-24 -30q24 -24 -24 -66l6 -41l30 12
l107 -6q12 18 41 18l36 -24q18 -6 24 18q77 -12 77 -30v-60l-35 -53l-60 -6q-107 -6 -113 18l-71 -24l6 -18l-12 -6l-30 12q-107 12 -119 0l-24 30q-59 -12 -71 6q-12 47 77 53q12 24 -30 30q-30 -12 -41 0l11 59l-47 48l-36 -6l-36 24l-6 -24q-11 12 -29 0l24 -24l-18 -18
l-24 6l-18 24v18l18 24l36 -12l6 12q5 -12 83 30q0 41 -24 41v30q36 6 54 36l-18 107l35 42l6 29l-23 42l23 24h36q60 53 214 83z" />
    <glyph glyph-name="f" unicode="f" horiz-adv-x="518" 
d="M470 720l36 -12l-18 -47l-12 -6q-30 12 -59 0v18l-30 23l6 18zM42 714h23l30 -29v11l54 6l30 -17l59 23h48q0 36 18 30l29 -24l6 -35l18 -30q36 -12 30 -30l77 6l42 -6l12 -12v-18q-42 -6 -42 -18q-12 24 -95 0q-24 54 -71 18l-30 -29q-6 -90 -42 -84l24 -24l65 -12
l90 18l59 -29l-24 -108l-47 -29l-66 6q-6 -18 -83 -18l-42 -24l24 -71l-30 -42l24 -30l-30 -59l12 -30l-12 -12l-12 6l6 42l-41 29l-54 -6q-24 -23 -47 -23l-30 41l24 149l-18 18l18 113l-30 107l18 77l-30 48l36 54l-12 35z" />
    <glyph glyph-name="g" unicode="g" horiz-adv-x="737" 
d="M333 238l12 -30h42q6 12 -36 36zM95 571h36l24 -47l53 47q12 24 -29 30q-12 60 6 66l29 -6q6 -30 42 -42l6 -24v-30h-12l6 -29q42 -12 36 -24q-24 -48 -78 -48l-6 -41q18 -6 12 -18l-24 -12l-41 18l-18 -18l-30 6v-30l18 -24q12 12 48 0l23 42l36 -36q0 -41 24 -41l18 17
l47 -41l36 6q12 47 36 53l-6 30l42 30l35 -6l18 47l54 -23q53 12 65 0l18 12l12 -12q18 6 65 -18v-90l30 -47q-6 -42 -41 -60q-6 -18 11 -23l-11 -120l-54 -41l-36 6l-47 35l-36 6l-30 -35l-18 12l-24 -18l-5 6h-18l-18 -24q-107 -6 -119 12q-6 41 -18 41h-18q0 -17 -24 -17
l-30 23q-17 -11 -59 30l-18 54l-36 30l-12 41l-35 24l-30 36v18l30 11l12 36l41 24q-23 36 0 48l36 -6l12 35v24l-54 60q-6 18 18 35zM381 601q12 42 48 54l35 -12q0 24 42 6l48 30q101 0 77 -96q48 -6 48 -35q6 -42 -18 -60l-66 6l-47 -18q-36 30 -54 12l-12 24l-36 30
l6 23l36 36l-53 6l-12 12q-18 0 -24 -24z" />
    <glyph glyph-name="h" unicode="h" horiz-adv-x="715" 
d="M-290 202l36 -12l89 -5q12 29 71 17l72 -12l18 -17l-6 -18q-54 -12 -60 -30l-36 18l-17 -6l-18 24l-42 -36l-59 6l-36 30q6 24 -12 29v12zM79 577l18 -12l36 6q6 -23 23 -6l-6 18l-41 -6q-42 6 -42 18q6 18 -18 84q6 71 113 89h36q-12 -30 6 -42l30 12l24 -18
q35 24 47 -6v-24l-36 -47l24 -42l-24 -18l-47 24q-12 12 -36 -30q12 -29 30 -35l48 -18q-12 12 -54 -30l-48 -6l-12 -18l30 -30l36 24l125 -18l24 -11q12 23 59 23l30 18q6 36 -12 48l18 18q-12 83 6 95l-12 30q18 23 12 77l83 -12q18 12 84 0l29 -36l-12 -41q12 6 30 -113
l-18 -48l6 -6l-12 -24q12 -6 0 -59q18 0 12 -30l-35 -71l29 -12l30 -48l-36 -12l-65 6q-18 -77 -83 -36q-6 42 59 36q6 6 -18 42h-18q-6 -24 -53 -30l-6 36q47 6 30 41q-48 6 -30 48l-6 12q-42 -6 -42 18l-59 -6l-12 12l-6 -6l12 -42l30 6l5 -18l-5 -36l-42 6l-54 -17
l-12 -60l18 -95l24 -30l-36 -30l-12 -47h-71l-24 12l-24 -12l-12 6l6 6l-41 29v18l-42 18l18 89l-18 30l30 48q0 35 -24 35v36l24 24v30l-30 18v17l36 30l12 30l-6 18q-48 36 -30 53zM156 167l36 18l-6 35q-30 6 -42 -12q-5 -29 12 -41zM383 155l178 -36l36 6l59 42l18 -18
q6 -30 -18 -60l-65 24q-12 -24 -24 -24l-24 -41h-24l-17 -18l-24 24q12 23 -6 53l-95 -12l-18 18q0 36 24 42zM585 18l48 -6l29 -30l-6 -6q18 -24 -12 -30l-5 6h-18q0 -29 -36 -35l-66 23l6 24l30 18z" />
    <glyph glyph-name="i" unicode="i" horiz-adv-x="317" 
d="M60 440q23 6 47 -17q36 -12 36 29l-6 18q-60 -18 -72 84q-17 -12 -59 29q12 48 95 42q12 42 72 60q23 11 65 -24l24 -30l-12 -24l-65 -6l-12 -18q47 12 71 -83q-36 -18 -30 -54l48 -29q6 -42 -42 -54q42 -12 66 -155l-30 -41v-24q48 -36 30 -54l-30 -29q6 -30 -18 -42
l-95 6q-60 -30 -101 12l6 53l-12 18l6 6l-6 36l18 65l-24 78l18 35q12 48 -6 78z" />
    <glyph glyph-name="j" unicode="j" horiz-adv-x="417" 
d="M220 762l24 -12l-6 -42l48 -6l35 12l24 -24l24 -5l-12 -24l12 -30l-18 -77h-30l-17 29q-18 0 -24 -23h-18v-12q30 -12 18 -48q-60 12 -66 0l-47 71l23 30l12 42l-6 30q6 41 18 41q-24 36 6 48zM119 208q30 6 36 -12l83 60l-6 24q-59 12 -71 35q18 72 83 90q-65 30 -18 83
l24 -18q42 18 101 12l-6 24l-24 12l12 24l48 -6v-30l-12 -12l-12 -48l24 -17l12 -78l-24 -36l-12 -89q0 -18 -24 -18l6 -6q30 18 36 -12v-41l-30 -30q12 -36 -24 -54l-65 12l-42 -17q18 11 -18 47l-17 -6q11 -12 0 -30l-36 -6l-54 6l-24 18h-47l-12 18q-6 60 12 89h83z" />
    <glyph glyph-name="k" unicode="k" horiz-adv-x="663" 
d="M-232 774q29 6 35 -18l-6 -30q-35 -6 -47 12q-6 30 18 36zM250 381l6 -30q-48 -12 -30 -59q36 12 48 0l6 -24l-6 -36l23 -71l-23 -48l-24 -24q12 -35 -6 -53l-36 12l-12 -18l-18 12q-18 -12 -41 6v41l12 18l-54 -6q-18 6 -18 42l6 42l-30 23l6 24l24 18q12 6 -24 42
l-6 59l30 42l-30 30l6 35l48 36q-36 18 -48 36q30 41 84 35h29l24 -17l18 12l24 -6l12 -36l-6 -42q0 -12 95 -12l18 -18v-11q18 -12 24 23v18q-48 12 -30 72q54 35 65 23l24 18h30l24 -29l24 -12v-18l-30 -30q-30 6 -36 -18q12 12 48 -53l6 -36l29 -18l24 -42
q-18 -41 36 -83l6 -48l-18 -29l42 -66h24v-18l-36 -35h-18v17l-18 18l-47 18l-84 -18l-59 54l-12 53l-18 18q-12 60 -48 54l-24 47l6 6q-17 30 18 48l-12 24zM512 744l6 -6l89 6l-12 -36q24 -12 6 -29l-30 -12q24 -72 -53 -72l-78 12l-18 -6v18l12 6l24 36l-24 41l12 24h36z
M160 661l36 -18q36 6 54 -12l-6 -18l-42 6l-12 -18l-47 24q-6 30 17 36zM101 732q18 12 54 -24v-18q-42 6 -54 36v6z" />
    <glyph glyph-name="l" unicode="l" horiz-adv-x="690" 
d="M197 780l36 -18l77 6l54 -30q-12 -12 0 -42q-24 -23 -54 -101l48 -59q-18 -48 -42 -48h-30q-35 42 -125 36q-12 -12 -53 30h-96l-41 -24q-78 -6 -84 -18l-29 18l-6 24l-30 41l6 60h36l47 -36l30 12l36 -12l35 18q54 -12 84 6l-6 42q18 35 107 95zM155 315q36 6 42 -11
q0 29 77 41l42 30q-12 -42 24 -65v-42l-18 -18l6 -54q89 24 107 -6l30 30l41 -18l72 24l18 -12l30 12l23 -41q-12 -48 -53 -48v-18q-24 -12 -24 -30l-54 -35l-35 23l-54 -6l-24 -29l-41 6l-66 -24l-18 6q12 30 -6 41l-35 -41l-48 -12l-54 12l-29 41q12 60 -6 66l12 12
q-12 24 29 95l-6 42z" />
    <glyph glyph-name="m" unicode="m" horiz-adv-x="895" 
d="M164 607l18 -24l24 6l-12 48l-18 -6zM105 744l36 -6q-12 -36 0 -48h53q-12 54 6 60l167 -6l-6 -42l30 -17q-12 -42 6 -54l-6 -12l-60 -30l-6 -47q-6 -18 -36 -12l-17 -30l11 -30l-11 -83q11 -72 -6 -77l12 -12q0 -119 29 -119h36l18 23h24l12 24l29 -12l18 12v12l-36 -6
q-5 30 42 60l42 -6l6 6l-6 18l-66 -12l-29 17l-36 -35l-54 41q0 42 24 54l24 -12q-12 36 0 48h30l29 18h18q6 -42 18 -42l78 6l35 -66l36 -35q0 -30 -30 -36l-6 -18l-30 -30v-23l18 -18l-6 -102l-23 -29l-72 6q-12 -30 -47 -12l-12 24l6 53l-60 42h-30l-18 -24
q-6 -30 12 -36q-12 6 -29 -18q11 -29 -6 -41l-42 6l-24 -18q-47 24 -101 24l-6 12q12 29 0 59l-30 24v18l30 18v95l-12 24q12 18 -6 83q30 36 18 48v17l-30 30v18l42 54v23l-24 12l-12 48q30 60 12 71l30 24zM-8 595h24q6 -30 -12 -35l-30 11zM283 667l12 6l-6 41h-29
q-12 -41 23 -47zM653 768l47 -18l12 -18l60 12l53 -42l-18 -6l36 -23q6 -78 -18 -78l-71 12l-24 -24l-95 12l-12 -12q24 -41 6 -59q-30 0 -42 -24h-30l-6 12l6 59q30 -6 42 12q-18 30 -60 24q-17 66 42 78l18 41l-6 6q6 30 60 36zM778 589q59 12 95 -29q6 -18 -18 -36
q-36 -36 -54 -24l-18 -18q24 -47 6 -77l66 -36l-18 -83l6 -30l-54 -48l-6 -23l12 -12l48 -6q12 -30 0 -36l-36 -6l-18 -36q-41 -6 -59 12l-18 -47q-24 -12 -48 23q12 60 -23 78v24l29 47q48 6 48 42q-6 53 12 89q-18 0 -12 30l24 6l30 36q11 71 0 101l11 24l-23 11z" />
    <glyph glyph-name="n" unicode="n" horiz-adv-x="843" 
d="M244 762q48 0 66 -48q5 36 35 30q0 -42 18 -42h18l59 -29q-5 -42 18 -42h30l36 18l41 65l36 24l101 -6l54 -36v-29l24 -42q12 -18 -24 -54l6 -47l-24 -18l12 -12h71l30 12q89 12 131 0q42 24 89 0l-11 -36l5 -35q36 -12 24 -30l-35 -12q-30 24 -84 24l-6 -12h-47l-78 -30
l-24 18l-41 -12l-24 -30h-18q-24 -59 -119 -53q-12 41 -48 59q-17 -18 -83 36l-77 -6q-30 24 -66 24q-89 -36 -107 -24l-12 -18h-12v-6l84 6l18 -24q-12 -89 -30 -101h-18l-18 36l-48 18q-23 17 -23 59l-18 6l-42 42l-48 12l-17 -6l-12 35q0 -17 -24 -11l-12 17v6
q95 24 113 6l24 18l-6 24l-30 18v24l18 17l-71 18q-12 12 0 24h17l72 72q12 6 0 41q6 30 107 42zM214 173h36l18 -24h6l-6 30l6 6h18l29 -30l-6 -36l-29 -24q-42 12 -54 -6v-35h-18q-6 35 -35 47q-6 72 35 72zM601 208q30 -29 60 -35l12 -18l23 6l42 -24l-30 -24l6 -24
l-83 24q-42 -36 -66 -24l-29 36q-6 54 59 60zM494 351l18 -12q12 -65 -24 -83q-36 12 -48 48q24 47 54 47z" />
    <glyph glyph-name="o" unicode="o" horiz-adv-x="814" 
d="M506 595l113 -6l12 12l42 -6l29 6l48 30q30 -30 60 -18q5 12 41 0q0 36 36 54l53 -24h30l72 -24v-12q-42 12 -66 0q-6 -30 18 -42l196 -65h24l-12 24l-77 47q42 6 54 -11l101 -84l-6 -137h24l12 36q17 83 -36 149q-66 59 -226 155q-6 17 17 35l18 6q42 6 54 -12l137 -137
l101 -148l-6 -66q24 -6 6 -36l-71 -35h-24l-36 24l-54 -36h-35l-48 -18l-107 12q-89 -12 -107 0l-161 -36q-42 -6 -53 12l-12 -6v-30q41 -6 41 -29l-35 -30l-30 -36q-30 0 -42 -24h-30l-95 -47q-30 18 -83 -18l-48 6l-18 24q-53 11 -65 29q-30 -12 -42 0l-6 24l-53 48
l-30 65l-36 24l-89 -6v18q12 -12 48 24v12l53 59q0 18 -30 48l-6 77q-41 0 -41 12l12 30q18 6 35 -18q12 0 12 48h42l18 23h36q11 24 53 -6q0 -35 -30 -71l-6 -36q12 -12 48 24l30 66l47 23q-6 48 18 54l-6 18q-12 -12 -29 6q-6 18 17 36q60 -6 66 -18l47 29q42 -6 54 -41
l-6 -30l-42 12q-35 -36 -47 -30l-72 -53l-17 -60l-12 -6q12 -53 53 -71l-12 -54h42l54 30l-12 30l12 6l5 -6q72 47 72 172h-6zM417 208q65 0 89 24l-6 54q60 6 54 47l-42 -6q-12 -41 -83 -41l-48 -36v-24zM1018 446l59 30l-29 24l-60 -6v-24zM530 774l41 -6l30 -42l-6 -12
q-18 12 -53 -6l-18 36zM1018 387h47v24q-29 6 -47 -12v-12z" />
    <glyph glyph-name="p" unicode="p" horiz-adv-x="680" 
d="M87 520l48 -12q0 18 -24 24q-6 47 36 71l-66 12l-6 18l12 36h36l24 -24l23 48l6 -54q6 -24 24 -6q-12 36 6 48l42 6l35 -30q30 30 42 18q12 -18 30 -12l24 -24q6 -24 -12 -24l-48 6q-12 36 -53 6v-18q35 -36 23 -95l42 -30l149 18l12 18l-60 48l-6 59l-53 24q12 30 30 30
l41 -6l12 12h125q30 23 42 0l-36 -84l6 -18l48 12l17 -18l-5 -53q-48 -6 -48 -18l24 -36q-6 -53 -42 -77q-30 12 -89 -30q-24 -6 -48 18l-30 -6l-12 -54l-5 6l-60 -6l-24 18l-59 -6q-24 42 -60 12l78 -125l-6 -35q11 -72 47 -84v-47l-41 -12l-36 6q-24 -18 -54 -12l-35 18
l-36 -12l-84 41l36 36l12 30l-12 36q36 17 54 89q18 47 -18 59q-18 6 -18 -35l-6 6q-24 6 -36 -12l-12 6l12 47q-35 72 -23 78q23 53 53 65zM-20 597q36 12 48 -53l-6 -72l-24 12q0 30 -30 66v41l18 6h-6zM539 508h12q0 71 -29 101l-30 -12l18 -35l-6 -42z" />
    <glyph glyph-name="q" unicode="q" horiz-adv-x="793" 
d="M524 714l53 -29l36 -6l-6 -48l-65 -18l6 -18l29 -12l36 6l36 60l41 -36q12 -101 30 -113l-18 -18l12 -24l-18 -65q0 -18 30 -48q12 -41 -30 -83l6 -6h-12l6 -60l-35 -47v-42l29 -18l12 6l24 -24l12 -41q24 -6 24 -18l-24 -36q30 0 18 -53q-60 12 -95 -6q-30 29 -66 12
q-30 23 -89 23l6 36l-42 12l-6 18l-89 -6l-42 24q-47 12 -71 0l-24 12q-30 -24 -42 -6q-11 29 24 35l-30 18l-29 -6l-30 30v30l-54 59l-6 60l-23 18q-24 -12 -30 0l12 47l18 12l-6 30l12 42l-6 83l53 77l54 42q-18 42 35 60l60 -6l36 -18v-18l47 24q0 47 12 47l6 -23h36
q12 -30 53 -18v-36q-35 -6 -47 12l-60 -42l-18 -41l-11 -6l17 -30v-24l-23 -6l-24 -24l18 -89l-6 -30l47 -30v-23l-23 -24l5 -12l30 -6l18 -42l12 42l36 -12v-12q12 12 29 0l60 54q-30 41 18 89v30l-24 65l12 48l-60 71v18l60 54l6 12l-18 23zM506 -48l6 36l-42 12l-6 18
l-89 -6l-42 24q-47 12 -71 0l-24 12q-30 -24 -42 -6q-11 29 24 35l-30 18l-29 -6l-30 30v30l-54 59l-6 60l-23 18q-24 -12 -30 0l12 47l18 12l-6 30l12 42l-6 83l53 77l54 42q-18 42 35 60l60 -6l36 -18v-18l47 24q0 47 12 47l6 -23h36q12 -30 53 -18v-36q-35 -6 -47 12
l-60 -42l-18 -41l-11 -6l17 -30v-24l-23 -6l-24 -24l18 -89l-6 -30l47 -30v-23l-23 -24l5 -12l30 -6l18 -42l12 42l36 -12v-12q12 12 29 0l60 54q-30 41 18 89v30l-24 65l12 48l-60 71v18l60 54l6 12l-18 23l30 18l53 -29l36 -6l-6 -48l-65 -18l6 -18l29 -12l36 6l36 60
l41 -36q12 -101 30 -113l-18 -18l12 -24l-18 -65q0 -18 30 -48q12 -41 -30 -83l6 -6h-12l6 -60l-35 -47v-42l29 -18l12 6l24 -24l12 -41q24 -6 24 -18l-24 -36q30 0 18 -53q-60 12 -95 -6q-30 29 -66 12q-30 23 -89 23zM524 714l53 -29l36 -6l-6 -48l-65 -18l6 -18l29 -12
l36 6l36 60l41 -36q12 -101 30 -113l-18 -18l12 -24l-18 -65q0 -18 30 -48q12 -41 -30 -83l6 -6h-12l6 -60l-35 -47v-42l29 -18l12 6l24 -24l12 -41q24 -6 24 -18l-24 -36q30 0 18 -53q-60 12 -95 -6q-30 29 -66 12q-30 23 -89 23l6 36l-42 12l-6 18l-89 -6l-42 24
q-47 12 -71 0l-24 12q-30 -24 -42 -6q-11 29 24 35l-30 18l-29 -6l-30 30v30l-54 59l-6 60l-23 18q-24 -12 -30 0l12 47l18 12l-6 30l12 42l-6 83l53 77l54 42q-18 42 35 60l60 -6l36 -18v-18l47 24q0 47 12 47l6 -23h36q12 -30 53 -18v-36q-35 -6 -47 12l-60 -42l-18 -41
l-11 -6l17 -30v-24l-23 -6l-24 -24l18 -89l-6 -30l47 -30v-23l-23 -24l5 -12l30 -6l18 -42l12 42l36 -12v-12q12 12 29 0l60 54q-30 41 18 89v30l-24 65l12 48l-60 71v18l60 54l6 12l-18 23zM798 30h47l48 -24v-24l-24 -6l-18 18l-47 6l-12 12z" />
    <glyph glyph-name="r" unicode="r" horiz-adv-x="871" 
d="M256 673q-6 41 42 35l53 -6l6 12q36 -6 48 12q0 48 30 48l77 -30q77 -12 131 0l-6 -30l18 -18l24 6l6 36l17 -6q-23 -30 -6 -42q30 24 42 0q6 -29 -42 -35l-11 -36l17 -24l30 -12l-6 -35q-47 -12 -47 -30q125 -18 178 -48l6 -18l-18 -17l-35 11l-36 -11l-42 5l-47 -23
l-24 18h-12l-36 -30v-42l-18 -12h-95q-6 -36 -71 -24q-6 -59 29 -59l12 18h36l36 29l23 -17l6 -18l48 -54l30 -12q36 12 77 -6l30 18l-18 54l36 12l59 -6q0 18 30 12q12 -18 30 -12l42 18l53 -18q12 18 42 18l47 -18q12 12 119 0q0 -54 -23 -60v-24h12l-12 -29l6 -6l-18 -18
l-42 6l-6 -12l-6 6l-53 -6q-6 -18 -18 -12v18l-30 -6l6 -18l-12 -12l12 -18l-6 -12l-42 6v30h12q24 12 -6 36l-53 -18l-30 12l-30 -6l-24 6q6 30 -18 41l-5 -11l-60 -12q-60 18 -95 -18l6 -30q-12 -42 -30 -42l-36 -6l-59 -29q-18 12 -78 0l-47 23l-6 12q18 18 12 36l-12 48
q-42 29 -36 71l-65 83h-30l-36 -23v-30l36 -36l-6 -47l-42 -54l-30 -12l-35 24l-18 -48q-78 -53 -107 -35l24 53v24l-36 42v53l47 48l6 24l84 65l35 66l-6 11l-65 24l12 48l-24 48l-24 17q-6 36 18 42h30l30 -12l23 -42q12 0 12 48l30 -30l-18 -77l36 -30h42l29 18
q78 -6 131 18q0 36 -53 101q-36 0 -48 24q-59 -6 -53 36h-18l-18 -18zM71 446l24 -11q12 -36 -24 -48l-29 12q-12 24 29 47zM54 774l29 -12q6 -48 -12 -48l-29 24q-6 30 12 36z" />
    <glyph glyph-name="s" unicode="s" horiz-adv-x="729" 
d="M30 30l6 -6q24 18 71 -18q-18 -36 -42 -42q-5 -12 18 -35q30 -6 42 11l12 -5l-6 -18l24 -18l-18 -30h-54l-23 24l-36 6v-12q18 0 12 -30h-18v30h-18v6q6 18 24 12l-12 35q24 -11 30 0l-42 12q-11 66 30 78zM149 6h36l29 -24l-6 -24l-53 6l-12 30zM280 83l24 -6l17 30
l30 -12q-12 -18 6 -53l-12 -6q-41 -6 -53 18l-12 -6l-12 12zM423 60l41 -6l-18 -36l-29 12zM83 274l60 -12l18 24q18 6 53 -18l6 12q30 -12 36 0q24 0 24 -54l41 -12l30 6l18 -35q12 11 30 -6l53 35q12 36 42 54l24 -12v-54q42 -12 89 0l18 -29l-18 -36q-36 6 -47 -18l-36 6
l-30 -18l-24 12h-47q-18 -18 -42 -12l-24 36l-47 12l-18 -24q-72 -12 -96 0q-11 -30 -29 -18l-18 24h-24l-24 30l-24 12q0 29 -29 65l6 18zM77 512l42 113h12q-18 77 42 83q-18 48 65 78h48l35 -6l6 -12l72 18l12 -12q12 18 53 12l101 -36q6 -24 36 -6v-18l-30 -30l54 -53
l71 -18l-6 -24l-71 -18l-54 -47l-47 12l-12 -18q-48 12 -42 47l6 6l-6 12q-29 -12 -65 6q-18 -18 -42 -12l-30 -35l12 -48q12 -6 48 18l30 -36l35 -6q30 30 84 12l65 -18q42 -53 66 -41l-18 -108q12 -29 47 -41l-11 -54h-36q-6 24 -36 30l-24 36l-47 -12l-12 59l-30 30
l-42 24q-23 -95 -71 -72q-12 66 -48 84l-41 -6l-30 -30q-24 42 -101 60q-6 23 18 47l77 6l12 18l-24 18l-54 -18q-77 18 -107 -12z" />
    <glyph glyph-name="t" unicode="t" horiz-adv-x="559" 
d="M48 780q83 -12 113 6q12 -24 77 0l12 -12l60 12q35 -30 142 -12q24 -24 54 -30l12 -59l-12 -54q30 -42 -36 -60q-89 18 -113 -35q12 -72 101 -101l-6 -36q-6 -18 -59 -12l-24 -42l6 -18l-18 -47v-18q48 -36 30 -54l-42 -119l-24 -12l-41 18l-101 -12q-36 12 -54 48
q30 125 42 125l-18 18l12 41l-12 12l-12 90q24 71 -30 89l6 18l42 41l-18 12l-95 6q-53 54 -12 84q0 18 -24 23v42q30 12 42 48z" />
    <glyph glyph-name="u" unicode="u" horiz-adv-x="615" 
d="M71 417l36 -30q18 24 36 24l36 59l6 -24l23 -23q30 6 42 -42l-18 -24l18 -143l95 -41h18q89 59 89 101l42 6l12 59l30 18l59 -89l-24 -78l-23 -29l-6 6l-24 -6q-6 -18 18 -66l-12 -18l-30 6l-18 -23h-24l-35 -24q-30 18 -78 -18l-35 24l-36 -12l-36 18l12 29l-6 12
l-65 -29l-24 17q-30 -12 -42 6l6 6l-12 30q-59 -18 -77 89l18 84l41 41l-29 12l-6 54zM464 417q36 -6 42 -36v-30l-24 -24q-36 -6 -42 42q0 48 24 48zM95 649l30 -6l-6 -24q-48 6 -54 -48h30q12 30 30 18l30 -24q53 12 59 -5v-24l-18 -18l6 -24q-29 0 -35 24h-18l-36 -48
l-24 6l-29 -18l-24 78l24 41l-18 12l12 30h11z" />
    <glyph glyph-name="v" unicode="v" horiz-adv-x="681" 
d="M524 744l59 -12l30 18v-6l24 6l12 -18v-107q-18 -12 -12 -77l-24 -30v-72l-83 -77v-54q18 0 18 -41l-48 -66q-12 -119 -54 -125q6 -53 -17 -89l-54 24q-18 -18 -125 -18q-54 12 -54 48l6 89q-23 24 -29 65l-30 18l-30 54l36 47l-89 125l-30 114l6 71q-41 12 -18 77h42
l17 24q42 -12 54 0l36 -30q23 24 53 0l12 -41q24 6 54 -90v-35l24 -66l-12 -95l6 -6l-42 -83l12 -12q47 0 83 30q-12 53 0 65l12 18l12 77l18 18v89l59 119q-6 48 66 54z" />
    <glyph glyph-name="w" unicode="w" horiz-adv-x="982" 
d="M500 750l42 -12l59 6q36 -6 54 -36q-6 -23 18 -29l12 29l59 -12l36 12q18 30 59 36l90 -12l11 -24v-41l-23 -30q-12 6 -30 -18q6 -18 -18 -42l12 -23v-42l30 -24l6 -30l-18 -18v-11q-42 -12 -60 -54q-24 12 -47 -6l-24 42l-30 18l12 83l18 18v18l-30 23q-48 24 -83 -77
l6 -83l-12 -12l-42 6l-12 18l-30 -18l-29 30l-12 -36q-48 18 -95 12l-36 -30h-36l-24 18h-23l-30 -18l-30 -60h-71v12h-18q6 -18 18 -18v-23l35 -36l36 18l36 -6q-12 30 0 42q24 5 47 -18l12 6l24 -36l-6 -6l6 -18l18 6q-24 -18 -30 -83l48 -18l-6 -24l-24 -18l-54 24
q24 65 6 89h-12l-59 -53q24 -78 -6 -90l-24 6l-12 36l-29 24v53q-12 30 -48 36l-30 78l36 59q-60 6 -78 72l12 130q-71 131 -53 155q0 24 47 24l167 -18q24 0 30 -95l30 -36l65 12l12 12l12 83q18 30 42 36l77 12h-6zM1095 595l30 -6l83 6l60 24q24 54 77 18l-6 -42
q-29 -12 -35 -30l-60 6l-48 -41h-47q12 30 0 35q-60 0 -54 24v6zM786 268l24 -6v-48l-24 -41l18 -48q-48 -36 -72 -24l-18 -24l60 -35l-18 -30q-54 -12 -77 24q17 41 -12 65q-102 -18 -107 18l5 42l54 -6l30 18q-12 53 0 59q30 -6 41 18q72 -6 96 18zM643 339l18 -12l-6 -6
l6 -11l-30 -24l-36 6q-12 35 48 47zM333 48l30 -12q6 -36 -18 -42q-30 6 -30 18q-5 30 18 36zM423 -137l6 24l89 -42l-6 -30l-54 42zM804 -12l53 -12v-30l-36 12l-29 -6l-6 6q6 30 18 30z" />
    <glyph glyph-name="x" unicode="x" horiz-adv-x="763" 
d="M342 780l36 -6l35 -30q12 -54 30 -65q-35 -78 78 -90q6 0 47 78l24 6q12 41 54 59q71 -42 89 -36l6 -11l-6 -36l-42 18q-18 -42 -47 -60v-30l17 6l12 24l18 -6q6 -101 -65 -131q-6 -59 -42 -47q-59 12 -65 -6l-30 18l-18 -24q-30 6 -42 -12q6 -48 36 -60q18 12 161 0
q18 -24 41 -6l42 -35l-12 -36q-24 0 -24 -24q24 -18 54 -18l18 -35l-6 -84q-30 6 -30 18l-24 -12q-35 24 -71 -6q-6 24 -66 24l-35 54l6 29l-54 48l-54 -18q-41 -48 -65 -48l18 -65l-30 -18h-24q-12 42 -35 42q23 -30 6 -42q-54 -12 -60 -30l-48 -65l-23 6l17 59
q6 30 -35 36q12 24 47 24l30 30l-30 35l-89 12l-6 24l-48 12l6 6q-6 42 -17 42l11 17l72 -11l71 11l24 24l48 -6l65 30l54 -24l18 24l-12 36l-36 41l-48 18q-59 78 -71 119l-65 60q-6 83 11 89q143 60 173 54zM-98 24l142 -12q0 18 72 12l-6 -12l-24 6q6 -30 -42 -36l-59 6
l-30 -6l-24 -24l-23 18q-18 0 -24 -24l6 -12l-12 -5l-30 35v30l30 -18l24 12q-12 24 0 30zM306 24q30 0 30 -30l-18 -36h-18l-23 -29q-18 -6 -36 17v24h12q35 60 53 54z" />
    <glyph glyph-name="y" unicode="y" horiz-adv-x="690" 
d="M571 756q96 -6 96 -42l-36 -29v-30q-60 -42 -48 -107q-12 -24 -53 -30l-60 -54l12 -29l-6 -18l-41 -30l-12 -36q-66 -41 -60 -65q89 -36 83 -54v-36l-29 -41l23 -60l-29 -18q-18 18 -36 12l18 24v12l-18 -6l-30 24q0 53 -30 59l-17 -6l-72 36v24q30 12 18 48
q-48 47 -30 77l36 -6l30 30l-6 47l-18 -6q6 -41 -30 -41q-47 41 -65 35q-30 18 -66 90l-6 47q-71 36 -77 125v24l53 36l42 -18q119 12 125 0l36 -59l36 -24l11 -54l24 -24q30 -6 42 12l36 78l71 65l89 18h-6zM327 -77q54 6 78 -18l24 12l59 -18l-24 -30l6 -18q-35 12 -71 0
v18l-36 -12q-12 18 -53 12l-30 24q12 30 47 30z" />
    <glyph glyph-name="z" unicode="z" horiz-adv-x="604" 
d="M155 530l35 -6l54 24v12l60 29q11 30 23 36q6 -65 125 -36l48 -29l6 -18q6 -42 -12 -54q-65 -53 -59 -83l-90 -24q-12 -30 0 -42l-24 -41v-18l-17 6q23 35 6 53q-66 -6 -66 -18l6 -41q54 12 60 0l-6 -48l-12 -30l-12 -6l-66 18l-107 -12q-47 0 -47 30v30l59 77l6 24
l54 54q-12 12 6 47l-18 18l-66 6l-12 18q18 -12 66 24zM238 113l6 -18l42 12v12zM190 42q24 0 24 71q-59 -12 -71 0l-48 -12l-30 18l6 24l36 -6q24 36 72 30l35 29l107 -23l72 6l18 -12l65 6q18 -24 60 -6l41 -30l-12 -72l24 -23q90 23 113 -54l-23 -30v-12h-42l-48 30
q6 24 -18 30l-47 -6l-89 30l-30 -6l-42 6q0 24 -48 24q6 11 -17 29q-6 -89 -108 -41zM226 708q42 0 54 -23l-24 -30l12 -36l-24 -18l-36 24zM351 714q18 -12 78 0l35 -24l-35 -29l-6 -18h-24l-24 30q-24 -6 -30 17zM95 714l54 -6l6 -12l-24 -29l-54 18l-6 -6zM24 679h18
l12 -30q41 6 41 -12l-24 -36q-41 -6 -53 60z" />
    <glyph glyph-name="braceleft" unicode="{" 
 />
    <glyph glyph-name="bar" unicode="|" 
 />
    <glyph glyph-name="braceright" unicode="}" 
 />
    <glyph glyph-name="asciitilde" unicode="~" 
 />
    <glyph glyph-name="nonbreakingspace" unicode="&#xa0;" 
 />
    <glyph glyph-name="exclamdown" unicode="&#xa1;" 
 />
    <glyph glyph-name="cent" unicode="&#xa2;" horiz-adv-x="32" 
 />
    <glyph glyph-name="sterling" unicode="&#xa3;" horiz-adv-x="692" 
d="M6 349q-11 34 23 45l80 -5l11 34h34q29 23 40 51h35q0 35 17 29q0 -34 23 -46l17 12l28 -6l17 28l29 -5l51 -46l12 -23l40 17l23 -28q5 -35 -35 -86q-34 11 -40 0l-22 -40v-57l-18 -17v-40l109 28l63 35q17 -18 57 17l23 -29l28 12l6 -18l23 -17l-6 -34q-23 -17 -28 -57
h-63l11 -23l35 -11l-12 -29l-51 6l-57 -23l-58 11l-45 -34q-35 -17 -40 17h-23l-46 -23q-6 17 -40 12l-23 17l-40 -6l-23 23h-22l-46 -23q-23 6 -23 40q11 74 0 97q57 35 91 29l29 34q-11 17 0 57l-17 12q-86 0 -86 34q-34 6 -46 -11q-45 17 -45 40zM337 566l12 -40l-23 -23
l-46 11l-17 23q11 29 74 29zM297 640l23 -6l-17 -40q-29 -5 -29 12zM354 651l23 -17l12 12q40 0 40 -23q28 11 40 0l-6 -34l-40 11q-12 -17 -29 -11l-28 28l-23 6zM486 571l40 -11l5 -11l-5 -23l-23 -17q-46 0 -46 28q0 29 29 34zM566 634q34 6 40 -11l-17 -29
q-18 -5 -35 17z" />
    <glyph glyph-name="currency" unicode="&#xa4;" 
 />
    <glyph glyph-name="yen" unicode="&#xa5;" 
 />
    <glyph glyph-name="brokenbar" unicode="&#xa6;" 
 />
    <glyph glyph-name="section" unicode="&#xa7;" 
 />
    <glyph glyph-name="dieresis" unicode="&#xa8;" 
 />
    <glyph glyph-name="copyright" unicode="&#xa9;" 
 />
    <glyph glyph-name="ordfeminine" unicode="&#xaa;" 
 />
    <glyph glyph-name="guillemotleft" unicode="&#xab;" 
 />
    <glyph glyph-name="logicalnot" unicode="&#xac;" horiz-adv-x="16" 
 />
    <glyph glyph-name="minus" unicode="&#xad;" 
 />
    <glyph glyph-name="minus" unicode="&#x2212;" 
 />
    <glyph glyph-name="registered" unicode="&#xae;" 
 />
    <glyph glyph-name="macron" unicode="&#xaf;" 
 />
    <glyph glyph-name="macron" unicode="&#x2c9;" 
 />
    <glyph glyph-name="degree" unicode="&#xb0;" 
 />
    <glyph glyph-name="plusminus" unicode="&#xb1;" 
 />
    <glyph glyph-name="twosuperior" unicode="&#xb2;" 
 />
    <glyph glyph-name="threesuperior" unicode="&#xb3;" 
 />
    <glyph glyph-name="acute" unicode="&#xb4;" 
 />
    <glyph glyph-name="mu1" unicode="&#xb5;" 
 />
    <glyph glyph-name="mu1" unicode="&#x3bc;" 
 />
    <glyph glyph-name="paragraph" unicode="&#xb6;" 
 />
    <glyph glyph-name="periodcentered" unicode="&#xb7;" 
 />
    <glyph glyph-name="periodcentered" unicode="&#x2219;" 
 />
    <glyph glyph-name="cedilla" unicode="&#xb8;" 
 />
    <glyph glyph-name="onesuperior" unicode="&#xb9;" 
 />
    <glyph glyph-name="ordmasculine" unicode="&#xba;" 
 />
    <glyph glyph-name="guillemotright" unicode="&#xbb;" 
 />
    <glyph glyph-name="onequarter" unicode="&#xbc;" 
 />
    <glyph glyph-name="onehalf" unicode="&#xbd;" 
 />
    <glyph glyph-name="threequarters" unicode="&#xbe;" 
 />
    <glyph glyph-name="questiondown" unicode="&#xbf;" 
 />
    <glyph glyph-name="Agrave" unicode="&#xc0;" 
 />
    <glyph glyph-name="Aacute" unicode="&#xc1;" 
 />
    <glyph glyph-name="Acircumflex" unicode="&#xc2;" 
 />
    <glyph glyph-name="Atilde" unicode="&#xc3;" 
 />
    <glyph glyph-name="Adieresis" unicode="&#xc4;" 
 />
    <glyph glyph-name="Aring" unicode="&#xc5;" 
 />
    <glyph glyph-name="AE" unicode="&#xc6;" 
 />
    <glyph glyph-name="Ccedilla" unicode="&#xc7;" 
 />
    <glyph glyph-name="Egrave" unicode="&#xc8;" 
 />
    <glyph glyph-name="Eacute" unicode="&#xc9;" 
 />
    <glyph glyph-name="Ecircumflex" unicode="&#xca;" 
 />
    <glyph glyph-name="Edieresis" unicode="&#xcb;" 
 />
    <glyph glyph-name="Igrave" unicode="&#xcc;" 
 />
    <glyph glyph-name="Iacute" unicode="&#xcd;" 
 />
    <glyph glyph-name="Icircumflex" unicode="&#xce;" 
 />
    <glyph glyph-name="Idieresis" unicode="&#xcf;" 
 />
    <glyph glyph-name="Eth" unicode="&#xd0;" 
 />
    <glyph glyph-name="Ntilde" unicode="&#xd1;" 
 />
    <glyph glyph-name="Ograve" unicode="&#xd2;" 
 />
    <glyph glyph-name="Oacute" unicode="&#xd3;" 
 />
    <glyph glyph-name="Ocircumflex" unicode="&#xd4;" 
 />
    <glyph glyph-name="Otilde" unicode="&#xd5;" 
 />
    <glyph glyph-name="Odieresis" unicode="&#xd6;" 
 />
    <glyph glyph-name="multiply" unicode="&#xd7;" 
 />
    <glyph glyph-name="Oslash" unicode="&#xd8;" 
 />
    <glyph glyph-name="Ugrave" unicode="&#xd9;" 
 />
    <glyph glyph-name="Uacute" unicode="&#xda;" 
 />
    <glyph glyph-name="Ucircumflex" unicode="&#xdb;" 
 />
    <glyph glyph-name="Udieresis" unicode="&#xdc;" 
 />
    <glyph glyph-name="Yacute" unicode="&#xdd;" 
 />
    <glyph glyph-name="Thorn" unicode="&#xde;" 
 />
    <glyph glyph-name="germandbls" unicode="&#xdf;" 
 />
    <glyph glyph-name="agrave" unicode="&#xe0;" 
 />
    <glyph glyph-name="aacute" unicode="&#xe1;" 
 />
    <glyph glyph-name="acircumflex" unicode="&#xe2;" 
 />
    <glyph glyph-name="atilde" unicode="&#xe3;" 
 />
    <glyph glyph-name="adieresis" unicode="&#xe4;" 
 />
    <glyph glyph-name="aring" unicode="&#xe5;" 
 />
    <glyph glyph-name="ae" unicode="&#xe6;" 
 />
    <glyph glyph-name="ccedilla" unicode="&#xe7;" 
 />
    <glyph glyph-name="egrave" unicode="&#xe8;" 
 />
    <glyph glyph-name="eacute" unicode="&#xe9;" 
 />
    <glyph glyph-name="ecircumflex" unicode="&#xea;" 
 />
    <glyph glyph-name="edieresis" unicode="&#xeb;" 
 />
    <glyph glyph-name="igrave" unicode="&#xec;" 
 />
    <glyph glyph-name="iacute" unicode="&#xed;" 
 />
    <glyph glyph-name="icircumflex" unicode="&#xee;" 
 />
    <glyph glyph-name="idieresis" unicode="&#xef;" 
 />
    <glyph glyph-name="eth" unicode="&#xf0;" 
 />
    <glyph glyph-name="ntilde" unicode="&#xf1;" 
 />
    <glyph glyph-name="ograve" unicode="&#xf2;" 
 />
    <glyph glyph-name="oacute" unicode="&#xf3;" 
 />
    <glyph glyph-name="ocircumflex" unicode="&#xf4;" 
 />
    <glyph glyph-name="otilde" unicode="&#xf5;" 
 />
    <glyph glyph-name="odieresis" unicode="&#xf6;" 
 />
    <glyph glyph-name="divide" unicode="&#xf7;" 
 />
    <glyph glyph-name="oslash" unicode="&#xf8;" 
 />
    <glyph glyph-name="ugrave" unicode="&#xf9;" 
 />
    <glyph glyph-name="uacute" unicode="&#xfa;" 
 />
    <glyph glyph-name="ucircumflex" unicode="&#xfb;" 
 />
    <glyph glyph-name="udieresis" unicode="&#xfc;" 
 />
    <glyph glyph-name="yacute" unicode="&#xfd;" 
 />
    <glyph glyph-name="thorn" unicode="&#xfe;" 
 />
    <glyph glyph-name="ydieresis" unicode="&#xff;" 
 />
    <glyph glyph-name="dotlessi" unicode="&#x131;" 
 />
    <glyph glyph-name="Lslash" unicode="&#x141;" 
 />
    <glyph glyph-name="lslash" unicode="&#x142;" 
 />
    <glyph glyph-name="OE" unicode="&#x152;" 
 />
    <glyph glyph-name="oe" unicode="&#x153;" 
 />
    <glyph glyph-name="Scaron" unicode="&#x160;" 
 />
    <glyph glyph-name="scaron" unicode="&#x161;" 
 />
    <glyph glyph-name="Ydieresis" unicode="&#x178;" 
 />
    <glyph glyph-name="Zcaron" unicode="&#x17d;" 
 />
    <glyph glyph-name="zcaron" unicode="&#x17e;" 
 />
    <glyph glyph-name="florin" unicode="&#x192;" 
 />
    <glyph glyph-name="circumflex" unicode="&#x2c6;" 
 />
    <glyph glyph-name="caron" unicode="&#x2c7;" 
 />
    <glyph glyph-name="tilde" unicode="&#x2dc;" 
 />
    <glyph glyph-name="endash" unicode="&#x2013;" 
 />
    <glyph glyph-name="emdash" unicode="&#x2014;" 
 />
    <glyph glyph-name="quoteleft" unicode="&#x2018;" 
 />
    <glyph glyph-name="quoteright" unicode="&#x2019;" 
 />
    <glyph glyph-name="quotesinglbase" unicode="&#x201a;" 
 />
    <glyph glyph-name="quotedblleft" unicode="&#x201c;" 
 />
    <glyph glyph-name="quotedblright" unicode="&#x201d;" 
 />
    <glyph glyph-name="quotedblbase" unicode="&#x201e;" 
 />
    <glyph glyph-name="dagger" unicode="&#x2020;" 
 />
    <glyph glyph-name="daggerdbl" unicode="&#x2021;" 
 />
    <glyph glyph-name="bullet" unicode="&#x2022;" 
 />
    <glyph glyph-name="ellipsis" unicode="&#x2026;" 
 />
    <glyph glyph-name="perthousand" unicode="&#x2030;" 
 />
    <glyph glyph-name="guilsinglleft" unicode="&#x2039;" 
 />
    <glyph glyph-name="guilsinglright" unicode="&#x203a;" 
 />
    <glyph glyph-name="fraction" unicode="&#x2044;" 
 />
    <glyph glyph-name="trademark" unicode="&#x2122;" 
 />
    <glyph glyph-name="fi" unicode="&#xf001;" 
 />
    <glyph glyph-name="fl" unicode="&#xf002;" 
 />
    </font>
</defs>
</svg>
